<svg width="100" height="100" viewBox="0 0 100 100" fill="none" xmlns="http://www.w3.org/2000/svg">
<circle cx="50" cy="50" r="50" fill="#7041DE"/>
<path fill-rule="evenodd" clip-rule="evenodd" d="M27 50C27 37.2977 37.2977 27 50 27C62.7023 27 73 37.2977 73 50C73 62.7023 62.7023 73 50 73C37.2977 73 27 62.7023 27 50ZM52.0909 37.4545C52.0909 36.9 51.8706 36.3682 51.4785 35.976C51.0864 35.5839 50.5545 35.3636 50 35.3636C49.4455 35.3636 48.9136 35.5839 48.5215 35.976C48.1294 36.3682 47.9091 36.9 47.9091 37.4545V39.5455C46.2455 39.5455 44.65 40.2063 43.4736 41.3827C42.2972 42.5591 41.6364 44.1546 41.6364 45.8182C41.6364 47.4818 42.2972 49.0773 43.4736 50.2537C44.65 51.43 46.2455 52.0909 47.9091 52.0909H52.0909C52.6455 52.0909 53.1773 52.3112 53.5694 52.7033C53.9615 53.0954 54.1818 53.6273 54.1818 54.1818C54.1818 54.7364 53.9615 55.2682 53.5694 55.6603C53.1773 56.0524 52.6455 56.2727 52.0909 56.2727H43.7273C43.1727 56.2727 42.6409 56.493 42.2488 56.8851C41.8567 57.2773 41.6364 57.8091 41.6364 58.3636C41.6364 58.9182 41.8567 59.45 42.2488 59.8421C42.6409 60.2343 43.1727 60.4545 43.7273 60.4545H47.9091V62.5455C47.9091 63.1 48.1294 63.6318 48.5215 64.024C48.9136 64.4161 49.4455 64.6364 50 64.6364C50.5545 64.6364 51.0864 64.4161 51.4785 64.024C51.8706 63.6318 52.0909 63.1 52.0909 62.5455V60.4545C52.9147 60.4545 53.7303 60.2923 54.4914 59.9771C55.2524 59.6618 55.9439 59.1998 56.5264 58.6173C57.1089 58.0348 57.5709 57.3433 57.8862 56.5823C58.2014 55.8212 58.3636 55.0056 58.3636 54.1818C58.3636 53.3581 58.2014 52.5424 57.8862 51.7813C57.5709 51.0203 57.1089 50.3288 56.5264 49.7463C55.9439 49.1639 55.2524 48.7018 54.4914 48.3866C53.7303 48.0713 52.9147 47.9091 52.0909 47.9091H47.9091C47.3545 47.9091 46.8227 47.6888 46.4306 47.2967C46.0385 46.9046 45.8182 46.3727 45.8182 45.8182C45.8182 45.2636 46.0385 44.7318 46.4306 44.3397C46.8227 43.9476 47.3545 43.7273 47.9091 43.7273H56.2727C56.8273 43.7273 57.3591 43.507 57.7512 43.1149C58.1433 42.7227 58.3636 42.1909 58.3636 41.6364C58.3636 41.0818 58.1433 40.55 57.7512 40.1579C57.3591 39.7657 56.8273 39.5455 56.2727 39.5455H52.0909V37.4545Z" fill="white"/>
</svg>
