<svg width="213" height="64" viewBox="0 0 213 64" fill="none" xmlns="http://www.w3.org/2000/svg">
<path d="M204.656 63.3416H7.87141C3.54218 63.3416 0 59.7787 0 55.4239V7.91774C0 3.56296 3.54211 0 7.87141 0H204.656C208.986 0 212.528 3.56296 212.528 7.91774V55.4239C212.528 59.7786 208.986 63.3416 204.656 63.3416" fill="black"/>
<path d="M204.656 0H7.87141C3.54218 0 0 3.56296 0 7.91774V55.4239C0 59.7786 3.54211 63.3416 7.87141 63.3416H204.656C208.986 63.3416 212.528 59.7787 212.528 55.4239V7.91774C212.528 3.56296 208.986 0 204.656 0H204.656ZM204.656 1.26679C208.302 1.26679 211.268 4.25087 211.268 7.91774V55.4239C211.268 59.0914 208.302 62.0755 204.656 62.0755H7.87141C4.22605 62.0755 1.25944 59.0914 1.25944 55.4239V7.91774C1.25944 4.25087 4.22597 1.26686 7.87141 1.26686H204.656" fill="#A6A6A6"/>
<path d="M74.6499 16.2208C74.6499 17.5475 74.2593 18.604 73.4771 19.3921C72.5885 20.3292 71.4305 20.7981 70.0068 20.7981C68.6435 20.7981 67.4843 20.3231 66.5311 19.3716C65.5762 18.4209 65.0996 17.2419 65.0996 15.8353C65.0996 14.428 65.5762 13.2498 66.5311 12.2982C67.4843 11.3476 68.6435 10.8718 70.0068 10.8718C70.6833 10.8718 71.331 11.0049 71.9459 11.2703C72.5608 11.5363 73.054 11.8895 73.423 12.3317L72.5927 13.1674C71.9674 12.4158 71.1065 12.0403 70.0068 12.0403C69.0126 12.0403 68.1528 12.3918 67.4272 13.095C66.7015 13.799 66.3387 14.712 66.3387 15.8353C66.3387 16.9587 66.7015 17.8716 67.4272 18.5756C68.1528 19.2789 69.0125 19.6303 70.0068 19.6303C71.0616 19.6303 71.941 19.277 72.645 18.5694C73.102 18.1085 73.3663 17.4678 73.437 16.645H70.0067V15.5037H74.584C74.6282 15.7519 74.6498 15.99 74.6498 16.2208" fill="white"/>
<path d="M74.65 16.2209H74.4926C74.4913 17.5174 74.1148 18.5243 73.3658 19.2803L73.3641 19.2816L73.3634 19.2828C72.5031 20.1877 71.3972 20.638 70.0069 20.6399C68.6799 20.638 67.5693 20.1828 66.6418 19.2598C65.7165 18.3351 65.2589 17.2061 65.2571 15.8355C65.2589 14.4641 65.7165 13.3358 66.6418 12.4117C67.5693 11.4881 68.6799 11.0322 70.0069 11.0303C70.6631 11.0303 71.2879 11.1591 71.8837 11.4158C72.4802 11.6744 72.9514 12.0133 73.3025 12.434L73.423 12.3318L73.3118 12.2199L72.4815 13.0561L72.5928 13.1675L72.714 13.0662C72.0596 12.2774 71.141 11.8798 70.0069 11.8821C68.9757 11.8809 68.0687 12.2515 67.3183 12.9815C66.5608 13.7138 66.1801 14.6781 66.1814 15.8355C66.1801 16.9929 66.5608 17.9571 67.3183 18.6895C68.0687 19.4195 68.9757 19.79 70.0069 19.7888C71.0966 19.7907 72.0253 19.4188 72.7564 18.6815C73.2447 18.1891 73.5215 17.5069 73.594 16.6587L73.6087 16.4868H70.1643V15.6622H74.5841V15.5039L74.4291 15.5317C74.4721 15.7718 74.4925 16 74.4925 16.2209H74.8073C74.8073 15.9802 74.7852 15.7328 74.739 15.4756L74.7157 15.3455H69.8495V16.8035H73.4371V16.6451L73.2804 16.6315C73.2109 17.4283 72.9587 18.0284 72.5338 18.4577C71.8574 19.1356 71.0272 19.4701 70.0069 19.4721C69.0495 19.4708 68.2372 19.1392 67.5367 18.4619C66.8431 17.787 66.498 16.9254 66.4963 15.8355C66.498 14.7455 66.8431 13.8839 67.5367 13.209C68.2372 12.5317 69.0494 12.2001 70.0069 12.1988C71.0715 12.2014 71.8753 12.5552 72.4724 13.2696L72.5831 13.402L73.5344 12.4439L73.6365 12.3412L73.5436 12.2304C73.1568 11.7666 72.6415 11.3984 72.008 11.1251C71.3734 10.851 70.7037 10.7136 70.0069 10.7136C68.6074 10.7124 67.3996 11.2072 66.4199 12.1865C65.4367 13.1639 64.941 14.3924 64.9424 15.8355C64.941 17.2779 65.4367 18.5071 66.4206 19.485C67.3996 20.4637 68.6074 20.9579 70.0069 20.9566C71.4644 20.9579 72.6735 20.471 73.591 19.5017L73.4771 19.3922L73.5884 19.5042C74.4039 18.6846 74.8085 17.5774 74.8074 16.2209H74.6499H74.65ZM81.9063 12.2521H77.6047V15.2646H81.4839V16.4063H77.6047V19.4188H81.9063V20.5861H76.3921V11.0848H81.9063V12.2521" fill="white"/>
<path d="M81.9065 12.2521V12.0937H77.4475V15.423H81.3267V16.2475L77.4475 16.248V19.5772H81.749V20.4277H76.5497V11.2432H81.749V12.2521H81.9065V12.0937V12.2521H82.0639V10.9265H76.2349V20.7444H82.0639V19.2605H77.7623V16.5647H81.6415V15.1063H77.7623V12.4104H82.0639V12.2521H81.9065V12.2521ZM87.0248 20.5862H85.8103V12.252H83.172V11.0848H89.663V12.252H87.0248V20.586" fill="white"/>
<path d="M87.0243 20.5862V20.4277H85.9672V12.0937H83.329V11.2433H89.505V12.0937H86.8669V20.5861H87.0243V20.4277V20.5861H87.1817V12.4104H89.8199V10.9265H83.0142V12.4104H85.6523V20.7444H87.1817V20.586H87.0243V20.5862ZM94.3589 20.5862V11.0848H95.5722V20.586H94.3589" fill="white"/>
<path d="M94.3591 20.5862H94.5165V11.2432H95.4149V20.4277H94.3591V20.5861H94.5165H94.3591V20.7444H95.7298V10.9265H94.2017V20.7444H94.3591V20.5861V20.5862ZM100.956 20.5862H99.7417V12.252H97.1036V11.0848H103.594V12.252H100.956V20.586" fill="white"/>
<path d="M100.956 20.586V20.4276H99.8991V12.0936H97.2611V11.2431H103.437V12.0936H100.799V20.5859H100.956V20.4276V20.5859H101.114V12.4103H103.752V10.9263H96.9463V12.4102H99.5843V20.7442H101.114V20.5858H100.956V20.586ZM109.852 18.5627C110.551 19.2746 111.407 19.6302 112.418 19.6302C113.43 19.6302 114.286 19.2746 114.984 18.5627C115.684 17.8507 116.034 16.9406 116.034 15.8353C116.034 14.7301 115.684 13.82 114.984 13.108C114.286 12.396 113.43 12.0403 112.418 12.0403C111.407 12.0403 110.551 12.396 109.852 13.108C109.154 13.82 108.804 14.73 108.804 15.8353C108.804 16.9406 109.154 17.8507 109.852 18.5627ZM115.882 19.3581C114.953 20.3186 113.798 20.7981 112.418 20.7981C111.037 20.7981 109.883 20.3186 108.956 19.3581C108.027 18.3986 107.565 17.2241 107.565 15.8353C107.565 14.4465 108.027 13.2718 108.956 12.3126C109.883 11.3518 111.037 10.8718 112.418 10.8718C113.791 10.8718 114.943 11.3543 115.876 12.3187C116.807 13.2831 117.274 14.4552 117.274 15.8353C117.274 17.2241 116.809 18.3986 115.882 19.3581Z" fill="white"/>
<path d="M109.852 18.5628L109.74 18.6741C110.465 19.4146 111.37 19.7907 112.418 19.7888C113.466 19.7907 114.372 19.4146 115.096 18.6741C115.826 17.933 116.193 16.9742 116.192 15.8355C116.193 14.6968 115.826 13.7379 115.096 12.9968C114.372 12.2563 113.466 11.8803 112.418 11.8821C111.37 11.8803 110.465 12.2563 109.74 12.9968C109.012 13.7379 108.644 14.6968 108.646 15.8355C108.644 16.9741 109.012 17.933 109.74 18.6741L109.852 18.5628L109.964 18.4515C109.296 17.7679 108.962 16.908 108.961 15.8355C108.962 14.763 109.296 13.9031 109.964 13.2195C110.638 12.536 111.443 12.2008 112.418 12.1989C113.393 12.2008 114.2 12.536 114.872 13.2195C115.541 13.9031 115.875 14.763 115.876 15.8355C115.875 16.908 115.541 17.7679 114.872 18.4515C114.2 19.135 113.393 19.4702 112.418 19.472C111.443 19.4702 110.638 19.135 109.964 18.4515L109.852 18.5628ZM115.882 19.3582L115.769 19.2482C114.867 20.1785 113.763 20.6381 112.418 20.6399C111.074 20.638 109.97 20.1785 109.069 19.2482L109.064 19.2432L109.069 19.2482C108.168 18.3147 107.723 17.1889 107.722 15.8355C107.723 14.482 108.168 13.3562 109.069 12.4228C109.97 11.4924 111.074 11.0322 112.418 11.0304C113.754 11.0322 114.855 11.4943 115.763 12.4296C116.667 13.3673 117.114 14.4913 117.116 15.8355C117.114 17.1889 116.668 18.3147 115.769 19.2482L115.882 19.3582L115.995 19.4682C116.949 18.4823 117.432 17.2594 117.431 15.8355C117.432 14.4196 116.948 13.1992 115.989 12.2089C115.03 11.2147 113.828 10.7119 112.418 10.7136C111.002 10.7119 109.796 11.2123 108.843 12.2027V12.202C107.887 13.1886 107.406 14.4115 107.407 15.8355C107.406 17.2594 107.887 18.4823 108.843 19.4689L108.847 19.4734L108.843 19.4682C109.796 20.4586 111.002 20.9579 112.418 20.9566C113.835 20.9579 115.04 20.4586 115.995 19.4682L115.882 19.3582V19.3582ZM118.977 20.5861V11.0848H120.454L125.045 18.4761H125.097L125.045 16.6451V11.0848H126.259V20.586H124.992L120.19 12.8365H120.137L120.19 14.6682V20.586H118.977" fill="white"/>
<path d="M118.977 20.5862H119.134V11.2432H120.367L124.957 18.6345H125.259L125.202 16.6428V11.2433H126.102V20.4277H125.08L120.277 12.6782H119.976L120.032 14.6708V20.4277H118.977V20.5861H119.134H118.977V20.7444H120.347V14.6658L120.295 12.8323L120.137 12.8366V12.9949H120.19V12.8366L120.056 12.9208L124.905 20.7444H126.417V10.9265H124.887V16.647L124.94 18.4804L125.097 18.4762V18.3178H125.045V18.4762L125.178 18.3921L120.541 10.9265H118.82V20.7444H118.977V20.5861L118.977 20.5862ZM168.347 47.5063H171.285V27.7102H168.347L168.347 47.5063ZM194.806 34.8412L191.439 43.4238H191.338L187.843 34.8411H184.679L189.92 46.8369L186.932 53.5095H189.997L198.073 34.8411L194.806 34.8412ZM178.147 45.2579C177.184 45.2579 175.842 44.7741 175.842 43.5766C175.842 42.0486 177.514 41.4629 178.956 41.4629C180.249 41.4629 180.855 41.743 181.641 42.1255C181.412 43.9588 179.843 45.2579 178.147 45.2579V45.2579ZM178.501 34.4081C176.375 34.4081 174.172 35.3507 173.261 37.4391L175.868 38.534C176.425 37.4391 177.462 37.0821 178.552 37.0821C180.071 37.0821 181.615 37.9995 181.641 39.6295V39.833C181.108 39.5273 179.97 39.069 178.577 39.069C175.767 39.069 172.905 40.6222 172.905 43.5258C172.905 46.1746 175.21 47.8811 177.791 47.8811C179.767 47.8811 180.855 46.9897 181.54 45.9457H181.641V47.4735H184.476V39.8836C184.476 36.3696 181.869 34.4081 178.501 34.4081V34.4081ZM160.347 37.251H156.169V30.4654H160.347C162.543 30.4654 163.79 32.2944 163.79 33.8581C163.79 35.3922 162.543 37.251 160.347 37.251ZM160.271 27.7102H153.233V47.5063H156.169V40.0062H160.271C163.527 40.0062 166.727 37.6351 166.727 33.8581C166.727 30.0812 163.527 27.7102 160.271 27.7102V27.7102ZM121.889 45.2615C119.859 45.2615 118.16 43.5524 118.16 41.2049C118.16 38.8328 119.859 37.0977 121.889 37.0977C123.892 37.0977 125.465 38.8327 125.465 41.2049C125.465 43.5524 123.892 45.2615 121.889 45.2615H121.889ZM125.262 35.9496H125.16C124.501 35.159 123.232 34.4447 121.635 34.4447C118.287 34.4447 115.218 37.4038 115.218 41.2049C115.218 44.9807 118.287 47.9146 121.635 47.9146C123.232 47.9146 124.501 47.2 125.16 46.3842H125.262V47.3535C125.262 49.9306 123.892 51.3081 121.686 51.3081C119.885 51.3081 118.769 50.0066 118.312 48.9098L115.751 49.9812C116.486 51.767 118.439 53.9612 121.686 53.9612C125.135 53.9612 128.052 51.9198 128.052 46.9453V34.8529H125.262V35.9496ZM130.081 47.5063H133.023V27.7094H130.081V47.5063ZM137.36 40.9755C137.283 38.3731 139.363 37.0468 140.859 37.0468C142.027 37.0468 143.016 37.6333 143.345 38.4759L137.36 40.9755ZM146.49 38.7306C145.933 37.225 144.232 34.4447 140.758 34.4447C137.309 34.4447 134.443 37.1743 134.443 41.1796C134.443 44.9554 137.283 47.9146 141.088 47.9146C144.157 47.9146 145.933 46.0266 146.668 44.9299L144.385 43.3989C143.625 44.5216 142.584 45.2615 141.088 45.2615C139.591 45.2615 138.526 44.5724 137.841 43.2208L146.794 39.4958L146.49 38.7306ZM75.1622 36.5112V39.3683H81.9591C81.7562 40.9755 81.2236 42.1489 80.4119 42.9653C79.4231 43.9606 77.876 45.0574 75.1621 45.0574C70.9773 45.0574 67.7058 41.6644 67.7058 37.4551C67.7058 33.2458 70.9773 29.8524 75.1622 29.8524C77.4196 29.8524 79.0676 30.7455 80.2852 31.8935L82.2888 29.8783C80.5897 28.2452 78.3322 26.9952 75.1622 26.9952C69.4301 26.9952 64.6113 31.6895 64.6113 37.4551C64.6113 43.2208 69.4301 47.9146 75.1622 47.9146C78.2566 47.9146 80.5897 46.8946 82.4155 44.9807C84.2924 43.0928 84.876 40.4398 84.876 38.2971C84.876 37.6333 84.8255 37.0215 84.7234 36.5112H75.1622ZM92.6035 45.2615C90.5741 45.2615 88.824 43.5777 88.824 41.1796C88.824 38.7559 90.5741 37.0977 92.6035 37.0977C94.6321 37.0977 96.3822 38.7559 96.3822 41.1796C96.3822 43.5777 94.6321 45.2615 92.6035 45.2615ZM92.6035 34.4447C88.9001 34.4447 85.8819 37.2763 85.8819 41.1796C85.8819 45.0574 88.9001 47.9146 92.6035 47.9146C96.306 47.9146 99.3242 45.0574 99.3242 41.1796C99.3242 37.2763 96.306 34.4447 92.6035 34.4447ZM107.265 45.2615C105.236 45.2615 103.486 43.5777 103.486 41.1796C103.486 38.7559 105.236 37.0977 107.265 37.0977C109.294 37.0977 111.044 38.7559 111.044 41.1796C111.044 43.5777 109.294 45.2615 107.265 45.2615H107.265ZM107.265 34.4447C103.562 34.4447 100.544 37.2763 100.544 41.1796C100.544 45.0574 103.562 47.9146 107.265 47.9146C110.968 47.9146 113.986 45.0574 113.986 41.1796C113.986 37.2763 110.968 34.4447 107.265 34.4447H107.265Z" fill="white"/>
<path d="M16.5434 12.0529C16.0151 12.5323 15.6997 13.332 15.6997 14.3936V14.1536V49.1833V48.9525C15.6997 49.9329 15.9702 50.69 16.4283 51.1775L16.5452 51.2901V51.2906C16.916 51.6272 17.3914 51.8059 17.9363 51.8053C18.4687 51.8053 19.0678 51.6346 19.7 51.274L42.551 38.2141L50.4001 33.7276C51.397 33.158 51.9566 32.4231 52.0502 31.6746V31.6715C51.9566 30.9212 51.397 30.1869 50.4002 29.6172L42.5503 25.1313L19.7 12.0714C19.0665 11.7102 18.467 11.5388 17.9332 11.5388C17.3889 11.5388 16.9141 11.717 16.5435 12.0529H16.5434Z" fill="#00C1FF"/>
<path d="M16.5453 51.29L16.4283 51.1775C15.9702 50.6899 15.6997 49.9328 15.6997 48.9525V49.1832V14.1622V14.3935C15.6997 13.332 16.0151 12.5322 16.5434 12.0528L36.0484 31.6721L16.5453 51.29Z" fill="url(#paint0_linear_376_265)"/>
<path d="M42.5514 38.2141L36.0488 31.6722L42.5508 25.1313L50.4006 29.6172C51.3974 30.187 51.9571 30.9212 52.0506 31.6716V31.6745C51.9571 32.4231 51.3974 33.158 50.4006 33.7276L42.5515 38.214" fill="url(#paint1_linear_376_265)"/>
<path d="M17.9364 51.8054C17.3916 51.8059 16.9161 51.6271 16.5454 51.2907V51.2902L36.0485 31.6722L42.5511 38.2141L19.7 51.2741C19.0678 51.6347 18.4688 51.8054 17.9364 51.8054Z" fill="url(#paint2_linear_376_265)"/>
<path d="M36.0486 31.6721L16.5435 12.0529C16.9142 11.7169 17.389 11.5388 17.9332 11.5388C18.4671 11.5388 19.0666 11.7101 19.7001 12.0714L42.5505 25.1313L36.0485 31.6721" fill="url(#paint3_linear_376_265)"/>
<path d="M17.9372 52.0371C17.3924 52.0371 16.9163 51.8583 16.5456 51.5219L16.5449 51.5224C16.5434 51.5209 16.5418 51.5195 16.54 51.5182L16.4386 51.4185C16.4354 51.4154 16.4325 51.4118 16.4287 51.4081L16.5456 51.2905C16.9164 51.627 17.3918 51.8057 17.9367 51.8051C18.4691 51.8051 19.0681 51.6344 19.7003 51.2738L42.5513 38.2139L42.6977 38.3612L42.5495 38.4459L19.7003 51.5051C19.1241 51.8336 18.5761 52.0049 18.0811 52.0335C18.0332 52.0358 17.9852 52.037 17.9372 52.037" fill="url(#paint4_linear_376_265)"/>
<path d="M16.4283 51.4082C15.9702 50.9207 15.6997 50.1642 15.6997 49.1832V48.9525C15.6997 49.9328 15.9702 50.6899 16.4283 51.1775L16.5452 51.2901L16.4283 51.4082" fill="url(#paint5_linear_376_265)"/>
<path d="M42.6972 38.3613L42.5508 38.2139L50.3999 33.7275C51.3968 33.1579 51.9564 32.423 52.05 31.6744C52.05 31.9492 51.989 32.2238 51.868 32.4911C51.6238 33.0298 51.1344 33.5389 50.4 33.9589L42.6972 38.3613" fill="url(#paint6_linear_376_265)"/>
<path d="M52.0501 31.6716C51.9566 30.9213 51.397 30.1871 50.4002 29.6173L42.5503 25.1314L42.6967 24.9841H42.6973L50.4002 29.3866C51.4992 30.0151 52.0495 30.8432 52.0501 31.6716" fill="url(#paint7_linear_376_265)"/>
<path d="M15.6997 14.3936V14.1516C15.6997 14.0643 15.702 13.979 15.7065 13.8962V13.8924C15.7065 13.8913 15.7065 13.89 15.7069 13.8888V13.8794C15.7543 13.035 16.0151 12.3764 16.4283 11.9365L16.5434 12.0528C16.0151 12.5323 15.6997 13.332 15.6997 14.3936Z" fill="url(#paint8_linear_376_265)"/>
<path d="M42.5507 25.1313L19.7003 12.0713C19.0669 11.7101 18.4674 11.5388 17.9336 11.5388C17.3893 11.5388 16.9145 11.7169 16.5438 12.0529L16.4287 11.9366C16.4647 11.8983 16.502 11.8614 16.5407 11.8259C16.5419 11.8246 16.5438 11.8233 16.545 11.8221C16.9128 11.4888 17.3826 11.3106 17.9219 11.3074H17.9336C18.4674 11.3074 19.0669 11.4788 19.7003 11.8401L42.6977 24.9835L42.6971 24.984L42.5507 25.1313" fill="url(#paint9_linear_376_265)"/>
<defs>
<linearGradient id="paint0_linear_376_265" x1="28.1646" y1="13.7921" x2="11.2841" y2="30.628" gradientUnits="userSpaceOnUse">
<stop stop-color="#00A0FF"/>
<stop offset="0.00657" stop-color="#00A1FF"/>
<stop offset="0.2601" stop-color="#00BEFF"/>
<stop offset="0.5122" stop-color="#00D2FF"/>
<stop offset="0.7604" stop-color="#00DFFF"/>
<stop offset="1" stop-color="#00E3FF"/>
</linearGradient>
<linearGradient id="paint1_linear_376_265" x1="53.2651" y1="31.5591" x2="15.1723" y2="31.5591" gradientUnits="userSpaceOnUse">
<stop stop-color="#FFE000"/>
<stop offset="0.4087" stop-color="#FFBD00"/>
<stop offset="0.7754" stop-color="#FFA500"/>
<stop offset="1" stop-color="#FF9C00"/>
</linearGradient>
<linearGradient id="paint2_linear_376_265" x1="39.0988" y1="37.892" x2="10.4944" y2="66.2126" gradientUnits="userSpaceOnUse">
<stop stop-color="#FF3A44"/>
<stop offset="1" stop-color="#C31162"/>
</linearGradient>
<linearGradient id="paint3_linear_376_265" x1="11.5164" y1="9.1442" x2="24.2649" y2="21.7856" gradientUnits="userSpaceOnUse">
<stop stop-color="#32A071"/>
<stop offset="0.0685" stop-color="#2DA771"/>
<stop offset="0.4762" stop-color="#15CF74"/>
<stop offset="0.8009" stop-color="#06E775"/>
<stop offset="1" stop-color="#00F076"/>
</linearGradient>
<linearGradient id="paint4_linear_376_265" x1="39.0849" y1="42.4296" x2="16.1763" y2="65.2779" gradientUnits="userSpaceOnUse">
<stop stop-color="#CC2E36"/>
<stop offset="1" stop-color="#9C0E4E"/>
</linearGradient>
<linearGradient id="paint5_linear_376_265" x1="18.2981" y1="13.7921" x2="3.42659" y2="28.6246" gradientUnits="userSpaceOnUse">
<stop stop-color="#008DE0"/>
<stop offset="0.00657" stop-color="#008DE0"/>
<stop offset="0.2601" stop-color="#00A7E0"/>
<stop offset="0.5122" stop-color="#00B8E0"/>
<stop offset="0.7604" stop-color="#00C4E0"/>
<stop offset="1" stop-color="#00C7E0"/>
</linearGradient>
<linearGradient id="paint6_linear_376_265" x1="53.2646" y1="31.673" x2="15.1716" y2="31.673" gradientUnits="userSpaceOnUse">
<stop stop-color="#E0C500"/>
<stop offset="0.4087" stop-color="#E0A600"/>
<stop offset="0.7754" stop-color="#E09100"/>
<stop offset="1" stop-color="#E08900"/>
</linearGradient>
<linearGradient id="paint7_linear_376_265" x1="53.2647" y1="31.6732" x2="15.1719" y2="31.6732" gradientUnits="userSpaceOnUse">
<stop stop-color="#FFE840"/>
<stop offset="0.4087" stop-color="#FFCE40"/>
<stop offset="0.7754" stop-color="#FFBC40"/>
<stop offset="1" stop-color="#FFB540"/>
</linearGradient>
<linearGradient id="paint8_linear_376_265" x1="18.282" y1="13.819" x2="3.96082" y2="27.4837" gradientUnits="userSpaceOnUse">
<stop stop-color="#40B8FF"/>
<stop offset="0.00657" stop-color="#40B9FF"/>
<stop offset="0.2601" stop-color="#40CEFF"/>
<stop offset="0.5122" stop-color="#40DDFF"/>
<stop offset="0.7604" stop-color="#40E7FF"/>
<stop offset="1" stop-color="#40EAFF"/>
</linearGradient>
<linearGradient id="paint9_linear_376_265" x1="11.4883" y1="13.2933" x2="21.718" y2="23.4962" gradientUnits="userSpaceOnUse">
<stop stop-color="#65B895"/>
<stop offset="0.0685" stop-color="#62BD95"/>
<stop offset="0.4762" stop-color="#50DB97"/>
<stop offset="0.8009" stop-color="#44ED98"/>
<stop offset="1" stop-color="#40F498"/>
</linearGradient>
</defs>
</svg>
