<svg width="47" height="47" viewBox="0 0 47 47" fill="none" xmlns="http://www.w3.org/2000/svg">
<path fill-rule="evenodd" clip-rule="evenodd" d="M35.163 23.5266C35.163 23.9124 35.0098 24.2824 34.737 24.5552C34.4642 24.828 34.0942 24.9812 33.7084 24.9812H16.8553L23.1014 31.2244C23.2367 31.3596 23.3439 31.5202 23.4171 31.6969C23.4903 31.8736 23.528 32.063 23.528 32.2542C23.528 32.4455 23.4903 32.6349 23.4171 32.8116C23.3439 32.9883 23.2367 33.1489 23.1014 33.2841C22.9662 33.4193 22.8056 33.5266 22.6289 33.5998C22.4522 33.673 22.2628 33.7107 22.0716 33.7107C21.8803 33.7107 21.6909 33.673 21.5142 33.5998C21.3375 33.5266 21.1769 33.4193 21.0417 33.2841L12.3141 24.5565C12.1786 24.4213 12.0711 24.2608 11.9978 24.0841C11.9245 23.9074 11.8867 23.7179 11.8867 23.5266C11.8867 23.3353 11.9245 23.1458 11.9978 22.9691C12.0711 22.7924 12.1786 22.6319 12.3141 22.4967L21.0417 13.7691C21.3148 13.496 21.6853 13.3425 22.0716 13.3425C22.4578 13.3425 22.8283 13.496 23.1014 13.7691C23.3746 14.0422 23.528 14.4127 23.528 14.799C23.528 15.1852 23.3746 15.5557 23.1014 15.8288L16.8553 22.072H33.7084C34.0942 22.072 34.4642 22.2253 34.737 22.498C35.0098 22.7708 35.163 23.1408 35.163 23.5266Z" fill="black" fill-opacity="0.3"/>
</svg>
