<svg width="48" height="48" viewBox="0 0 48 48" fill="none" xmlns="http://www.w3.org/2000/svg">
<circle cx="24" cy="24" r="24" fill="#7041DE"/>
<path d="M23.6953 34.0082C22.7353 34.0082 21.8313 33.8322 20.9833 33.4802C20.1513 33.1282 19.4313 32.6322 18.8233 31.9922C18.2313 31.3522 17.8073 30.6002 17.5513 29.7362L19.9513 28.8242C20.2713 29.6722 20.7593 30.3282 21.4153 30.7922C22.0713 31.2562 22.8313 31.4882 23.6953 31.4882C24.3993 31.4882 25.0073 31.3522 25.5193 31.0802C26.0473 30.8082 26.4553 30.4242 26.7433 29.9282C27.0473 29.4322 27.1993 28.8322 27.1993 28.1282C27.1993 27.4402 27.0473 26.8482 26.7433 26.3522C26.4553 25.8562 26.0473 25.4802 25.5193 25.2242C25.0073 24.9682 24.3993 24.8402 23.6953 24.8402C23.4073 24.8402 23.1113 24.8642 22.8073 24.9122C22.5193 24.9602 22.2633 25.0242 22.0393 25.1042L21.4153 23.7842L26.1193 18.2402H18.5113V15.8402H29.2873V18.1202L24.6793 23.6402L24.6073 22.7282C25.6793 22.7442 26.6233 22.9842 27.4393 23.4482C28.2553 23.8962 28.8873 24.5202 29.3353 25.3202C29.7993 26.1042 30.0313 27.0162 30.0313 28.0562C30.0313 29.1762 29.7593 30.1922 29.2153 31.1042C28.6713 32.0002 27.9193 32.7122 26.9593 33.2402C26.0153 33.7522 24.9273 34.0082 23.6953 34.0082Z" fill="white"/>
</svg>
