<svg width="48" height="48" viewBox="0 0 48 48" fill="none" xmlns="http://www.w3.org/2000/svg">
<circle cx="24" cy="24" r="24" fill="#7041DE"/>
<path d="M18.0273 32.72V30.68L22.9233 25.448C23.8833 24.424 24.6353 23.6 25.1793 22.976C25.7393 22.336 26.1393 21.776 26.3793 21.296C26.6353 20.816 26.7633 20.312 26.7633 19.784C26.7633 18.92 26.4993 18.256 25.9713 17.792C25.4433 17.312 24.7633 17.072 23.9313 17.072C23.0673 17.072 22.3233 17.32 21.6993 17.816C21.0753 18.296 20.6433 19 20.4033 19.928L17.9073 19.208C18.0993 18.264 18.4833 17.448 19.0593 16.76C19.6353 16.056 20.3393 15.512 21.1713 15.128C22.0193 14.744 22.9313 14.552 23.9073 14.552C25.0433 14.552 26.0353 14.768 26.8833 15.2C27.7313 15.616 28.3873 16.2 28.8513 16.952C29.3313 17.704 29.5713 18.576 29.5713 19.568C29.5713 20.224 29.4433 20.864 29.1873 21.488C28.9473 22.096 28.5713 22.744 28.0593 23.432C27.5473 24.104 26.8913 24.864 26.0913 25.712L21.7713 30.32H29.9073V32.72H18.0273Z" fill="white"/>
</svg>
