<svg width="274" height="161" viewBox="0 0 274 161" fill="none" xmlns="http://www.w3.org/2000/svg">
<g clip-path="url(#clip0_93_967)">
<path fill-rule="evenodd" clip-rule="evenodd" d="M119.005 73.3627C158.775 110.144 212.55 100.183 255.332 73.2435C256.067 72.7822 257.041 73.0017 257.503 73.7374C257.964 74.473 257.744 75.447 257.009 75.9083C213.031 103.605 157.749 113.485 116.866 75.6721C116.228 75.0843 116.19 74.0885 116.781 73.4479C117.369 72.8098 118.364 72.7718 119.005 73.3627Z" fill="black"/>
<path fill-rule="evenodd" clip-rule="evenodd" d="M255.368 75.0821C252.605 75.2146 249.139 75.4192 248.745 75.4309C238.068 75.7493 227.914 74.3943 217.606 71.5085C216.769 71.2753 216.28 70.4038 216.513 69.5669C216.746 68.73 217.618 68.2409 218.455 68.4741C228.449 71.2757 238.297 72.5924 248.653 72.2823C249.257 72.2647 257.048 71.8 258.63 71.8243C259.279 71.8313 259.645 72.0369 259.726 72.0936C260.17 72.3783 260.34 72.7467 260.415 73.0541C260.497 73.4018 260.491 74.0087 260.06 74.6635C259.606 75.3469 258.322 76.5268 258.022 76.8509C253.508 81.7526 248.043 86.83 243.951 92.5451C240.048 97.995 237.391 104.032 238.278 111.114C238.387 111.976 237.772 112.764 236.91 112.872C236.048 112.981 235.26 112.366 235.151 111.504C234.161 103.587 237.027 96.8031 241.388 90.7126C245.457 85.0317 250.839 79.9597 255.368 75.0821Z" fill="black"/>
</g>
<path d="M1.32324 38.6855C1.49512 37.9746 1.71777 37.2324 1.99121 36.459C2.27246 35.6855 2.56543 34.8965 2.87012 34.0918C3.1748 33.2871 3.47559 32.4707 3.77246 31.6426C4.06934 30.8066 4.32324 29.9746 4.53418 29.1465C4.58887 28.9434 4.63574 28.7559 4.6748 28.584C4.71387 28.4121 4.75293 28.2285 4.79199 28.0332C4.88574 27.8301 5.01074 27.6738 5.16699 27.5645C5.33105 27.4551 5.50684 27.4004 5.69434 27.4004C5.86621 27.4004 6.02637 27.4277 6.1748 27.4824C6.33105 27.5371 6.46387 27.627 6.57324 27.752C6.69043 27.8691 6.78027 28.0215 6.84277 28.209C6.91309 28.3965 6.94824 28.6191 6.94824 28.877C6.94824 29.1582 6.90527 29.4785 6.81934 29.8379C6.51465 30.6191 6.20605 31.3848 5.89355 32.1348C5.58105 32.8848 5.27637 33.6191 4.97949 34.3379C4.69043 35.0566 4.4209 35.7676 4.1709 36.4707C3.9209 37.1738 3.70605 37.8691 3.52637 38.5566C3.51074 38.6113 3.47949 38.7324 3.43262 38.9199C3.38574 39.0996 3.33496 39.3184 3.28027 39.5762C3.2334 39.834 3.19043 40.1113 3.15137 40.4082C3.1123 40.6973 3.09277 40.9785 3.09277 41.252C3.09277 41.4395 3.10449 41.6191 3.12793 41.791C3.15137 41.9551 3.19043 42.0996 3.24512 42.2246C3.2998 42.3496 3.37402 42.4473 3.46777 42.5176C3.56152 42.5879 3.67871 42.623 3.81934 42.623C4.11621 42.623 4.47949 42.4707 4.90918 42.166C5.33887 41.8535 5.80371 41.4316 6.30371 40.9004C6.80371 40.3691 7.31543 39.748 7.83887 39.0371C8.37012 38.3262 8.88574 37.5645 9.38574 36.752C9.88574 35.9395 10.3506 35.1035 10.7803 34.2441C11.21 33.3848 11.5732 32.5371 11.8701 31.7012C11.9404 31.5527 12.0264 31.459 12.1279 31.4199C12.2295 31.373 12.3623 31.3496 12.5264 31.3496C12.8311 31.3496 13.085 31.4434 13.2881 31.6309C13.499 31.8105 13.6045 32.0449 13.6045 32.334C13.6045 32.4043 13.5967 32.4707 13.5811 32.5332C13.5654 32.5957 13.542 32.6699 13.5107 32.7559L13.3467 33.2363C13.2217 33.6035 13.1006 33.9434 12.9834 34.2559C12.874 34.5605 12.7842 34.8496 12.7139 35.123C12.6123 35.5137 12.5303 35.873 12.4678 36.2012C12.4053 36.5215 12.3545 36.8262 12.3154 37.1152C12.2842 37.3965 12.2607 37.6738 12.2451 37.9473C12.2373 38.2207 12.2334 38.498 12.2334 38.7793C12.2334 38.8887 12.2412 39.0488 12.2568 39.2598C12.2803 39.4707 12.3115 39.7051 12.3506 39.9629C12.3896 40.2129 12.4404 40.4707 12.5029 40.7363C12.5732 40.9941 12.6514 41.2324 12.7373 41.4512C12.8311 41.6699 12.9365 41.8496 13.0537 41.9902C13.1787 42.123 13.3193 42.1895 13.4756 42.1895C13.7178 42.1895 13.9717 42.0918 14.2373 41.8965C14.5107 41.6934 14.7842 41.4199 15.0576 41.0762C15.3311 40.7246 15.6045 40.3145 15.8779 39.8457C16.1592 39.377 16.4287 38.873 16.6865 38.334C16.9521 37.7949 17.2021 37.2363 17.4365 36.6582C17.6787 36.0801 17.8975 35.5098 18.0928 34.9473C18.2959 34.377 18.4717 33.8301 18.6201 33.3066C18.7764 32.7754 18.9014 32.291 18.9951 31.8535C19.0811 31.4395 19.1553 31.0371 19.2178 30.6465C19.2803 30.2559 19.3428 29.8652 19.4053 29.4746C19.4678 29.084 19.5342 28.6934 19.6045 28.3027C19.6826 27.9043 19.7764 27.498 19.8857 27.084C19.9248 26.9355 19.9834 26.7832 20.0615 26.627C20.1396 26.4707 20.2334 26.3301 20.3428 26.2051C20.46 26.0723 20.585 25.9668 20.7178 25.8887C20.8506 25.8027 20.9873 25.7598 21.1279 25.7598C21.4795 25.7598 21.7178 25.8574 21.8428 26.0527C21.9678 26.2402 22.0303 26.5566 22.0303 27.002C22.0303 27.3301 21.999 27.7129 21.9365 28.1504C21.8818 28.5879 21.8076 29.0488 21.7139 29.5332C21.6279 30.0098 21.5303 30.4941 21.4209 30.9863C21.3115 31.4785 21.2021 31.9434 21.0928 32.3809C20.874 33.2715 20.585 34.1973 20.2256 35.1582C19.8662 36.1113 19.4639 37.0449 19.0186 37.959C18.5811 38.8652 18.1123 39.7207 17.6123 40.5254C17.1201 41.3301 16.624 42.0215 16.124 42.5996C15.9521 42.8027 15.749 43.0098 15.5146 43.2207C15.2803 43.4316 15.0264 43.623 14.7529 43.7949C14.4873 43.9668 14.2139 44.1074 13.9326 44.2168C13.6592 44.334 13.3936 44.3926 13.1357 44.3926C12.5967 44.3926 12.1436 44.2363 11.7764 43.9238C11.417 43.6035 11.1201 43.1816 10.8857 42.6582C10.6592 42.127 10.4834 41.5254 10.3584 40.8535C10.2412 40.1738 10.1553 39.4746 10.1006 38.7559C9.66309 39.4043 9.26074 39.9824 8.89355 40.4902C8.53418 40.998 8.16699 41.4668 7.79199 41.8965C7.51074 42.2168 7.19434 42.5645 6.84277 42.9395C6.49121 43.3066 6.11621 43.6465 5.71777 43.959C5.32715 44.2793 4.9248 44.541 4.51074 44.7441C4.09668 44.9551 3.69043 45.0605 3.29199 45.0605C2.83105 45.0605 2.44434 44.9785 2.13184 44.8145C1.82715 44.6582 1.58105 44.4395 1.39355 44.1582C1.20605 43.877 1.06934 43.5449 0.983398 43.1621C0.905273 42.7793 0.866211 42.3652 0.866211 41.9199C0.866211 41.4043 0.90918 40.873 0.995117 40.3262C1.08105 39.7793 1.19043 39.2324 1.32324 38.6855ZM27.8432 43.4316C27.8432 43.2051 27.8706 42.9355 27.9253 42.623C27.98 42.3027 28.0073 41.9082 28.0073 41.4395C27.7495 41.627 27.4643 41.8496 27.1518 42.1074C26.8393 42.3652 26.5151 42.6113 26.1792 42.8457C25.8432 43.0801 25.5073 43.2793 25.1714 43.4434C24.8432 43.5996 24.5346 43.6777 24.2456 43.6777C24.0112 43.6777 23.7886 43.6426 23.5776 43.5723C23.3667 43.502 23.187 43.4082 23.0386 43.291C22.6245 42.9629 22.3237 42.6348 22.1362 42.3066C21.9565 41.9785 21.8667 41.5957 21.8667 41.1582C21.8667 40.9629 21.8823 40.7598 21.9136 40.5488C21.9526 40.3379 22.0073 40.0957 22.0776 39.8223C22.3745 38.5879 22.8823 37.4473 23.6011 36.4004C24.3276 35.3457 25.2261 34.4473 26.2964 33.7051C26.7104 33.416 27.1245 33.2324 27.5386 33.1543C27.9526 33.0684 28.3628 33.0254 28.769 33.0254C28.9487 33.0254 29.1479 33.0371 29.3667 33.0605C29.5932 33.084 29.7964 33.1074 29.9761 33.1309C30.1557 33.0918 30.3003 33.0645 30.4096 33.0488C30.5268 33.0332 30.6479 33.0254 30.7729 33.0254C31.0073 33.0254 31.2026 33.0566 31.3589 33.1191C31.5151 33.1816 31.6401 33.2676 31.7339 33.377C31.8276 33.4785 31.894 33.5996 31.9331 33.7402C31.98 33.873 32.0034 34.0137 32.0034 34.1621C32.0034 34.3652 31.9721 34.5605 31.9096 34.748C31.8471 34.9277 31.7846 35.1113 31.7221 35.2988L30.1753 41.4746C30.144 41.8105 30.1167 42.1191 30.0932 42.4004C30.0698 42.6816 30.0229 42.9434 29.9526 43.1855C29.9292 43.2559 29.8979 43.3457 29.8589 43.4551C29.8276 43.5566 29.7729 43.6582 29.6948 43.7598C29.6167 43.8535 29.519 43.9355 29.4018 44.0059C29.2846 44.0762 29.1323 44.1113 28.9448 44.1113C28.7026 44.1113 28.5073 44.0957 28.3589 44.0645C28.2182 44.0332 28.1089 43.9902 28.0307 43.9355C27.9526 43.873 27.9018 43.8027 27.8784 43.7246C27.855 43.6387 27.8432 43.541 27.8432 43.4316ZM23.9526 39.8926C23.9214 40.002 23.8862 40.1582 23.8471 40.3613C23.8159 40.5645 23.8003 40.7676 23.8003 40.9707C23.8003 41.1816 23.8315 41.373 23.894 41.5449C23.9565 41.709 24.0932 41.791 24.3042 41.791C24.6323 41.791 24.937 41.7207 25.2182 41.5801C25.5073 41.4316 25.7768 41.2559 26.0268 41.0527C26.3628 40.7793 26.7026 40.4746 27.0464 40.1387C27.3979 39.7949 27.7261 39.4355 28.0307 39.0605C28.3432 38.6855 28.6167 38.3027 28.8511 37.9121C29.0932 37.5137 29.269 37.1191 29.3784 36.7285C29.4409 36.502 29.4917 36.2402 29.5307 35.9434C29.5776 35.6465 29.6011 35.3809 29.6011 35.1465C29.6011 35.0449 29.5776 34.9473 29.5307 34.8535C29.4839 34.752 29.394 34.7012 29.2612 34.7012C28.8784 34.7012 28.4917 34.7754 28.1011 34.9238C27.7182 35.0723 27.3471 35.2715 26.9878 35.5215C26.6284 35.7715 26.2846 36.0684 25.9565 36.4121C25.6362 36.748 25.3432 37.1113 25.0776 37.502C24.812 37.8848 24.5815 38.2832 24.3862 38.6973C24.1987 39.1035 24.0542 39.502 23.9526 39.8926ZM41.6367 34.3145C41.3632 34.3145 41.0703 34.3809 40.7578 34.5137C40.4453 34.6387 40.1211 34.8105 39.7851 35.0293C39.4492 35.248 39.1054 35.498 38.7539 35.7793C38.4101 36.0527 38.0703 36.3379 37.7343 36.6348C37.5625 36.7832 37.3984 36.9199 37.2421 37.0449C37.0859 37.1621 36.9296 37.252 36.7734 37.3145C36.664 37.4941 36.5468 37.7324 36.4218 38.0293C36.3046 38.3184 36.1875 38.6387 36.0703 38.9902C35.9531 39.334 35.8398 39.6895 35.7304 40.0566C35.6289 40.416 35.5429 40.752 35.4726 41.0645C35.4336 41.2285 35.4023 41.3887 35.3789 41.5449C35.3554 41.7012 35.3281 41.8691 35.2968 42.0488C35.2656 42.2207 35.2265 42.4082 35.1796 42.6113C35.1406 42.8145 35.0898 43.041 35.0273 43.291C34.9882 43.4395 34.9257 43.5605 34.8398 43.6543C34.7539 43.7402 34.664 43.8066 34.5703 43.8535C34.4765 43.9004 34.3867 43.9277 34.3007 43.9355C34.2148 43.9512 34.1484 43.959 34.1015 43.959C33.8046 43.959 33.5625 43.8887 33.375 43.748C33.1875 43.6074 33.0937 43.334 33.0937 42.9277C33.0937 42.8184 33.0976 42.7051 33.1054 42.5879C33.1132 42.4629 33.1367 42.3262 33.1757 42.1777C33.3476 41.4355 33.5117 40.7676 33.6679 40.1738C33.832 39.5801 33.9961 39.0293 34.1601 38.5215C34.3242 38.0137 34.4882 37.5371 34.6523 37.0918C34.8242 36.6387 34.9961 36.1855 35.1679 35.7324C35.3476 35.2715 35.5312 34.7988 35.7187 34.3145C35.914 33.8223 36.1211 33.2793 36.3398 32.6855C36.3867 32.5527 36.5078 32.4434 36.7031 32.3574C36.9062 32.2637 37.1211 32.2168 37.3476 32.2168C37.6445 32.2168 37.8867 32.2832 38.0742 32.416C38.2695 32.5488 38.3671 32.7402 38.3671 32.9902C38.3671 33.0137 38.3593 33.0566 38.3437 33.1191C38.3281 33.1816 38.3046 33.248 38.2734 33.3184L37.7578 34.5371C38.0859 34.2793 38.4257 34.0215 38.7773 33.7637C39.1367 33.5059 39.5039 33.2754 39.8789 33.0723C40.2539 32.8613 40.6289 32.6934 41.0039 32.5684C41.3867 32.4355 41.7617 32.3691 42.1289 32.3691C42.8789 32.3691 43.4648 32.5723 43.8867 32.9785C44.3086 33.377 44.5195 33.998 44.5195 34.8418C44.5195 35.3262 44.4336 35.877 44.2617 36.4941C44.0976 37.1113 43.8867 37.7754 43.6289 38.4863C43.3789 39.1895 43.1054 39.9316 42.8086 40.7129C42.5195 41.4863 42.25 42.2754 42 43.0801C41.9296 43.2988 41.8554 43.4824 41.7773 43.6309C41.707 43.7793 41.6211 43.8965 41.5195 43.9824C41.4179 44.0762 41.2968 44.1426 41.1562 44.1816C41.0234 44.2207 40.8593 44.2402 40.664 44.2402C40.3593 44.2402 40.1484 44.1816 40.0312 44.0645C39.914 43.9551 39.8554 43.7754 39.8554 43.5254C39.8554 43.3066 39.8867 43.041 39.9492 42.7285C40.0195 42.4082 40.1132 42.0605 40.2304 41.6855C40.3554 41.3027 40.4961 40.8965 40.6523 40.4668C40.8164 40.0371 40.9921 39.5996 41.1796 39.1543C41.3281 38.7949 41.4726 38.4355 41.6132 38.0762C41.7617 37.7168 41.8906 37.3691 42 37.0332C42.1171 36.6973 42.2109 36.377 42.2812 36.0723C42.3515 35.7676 42.3867 35.4863 42.3867 35.2285C42.3867 34.9863 42.332 34.7754 42.2226 34.5957C42.1211 34.4082 41.9257 34.3145 41.6367 34.3145ZM47.7778 40.291C47.7778 39.6348 47.852 38.9551 48.0004 38.252C48.1489 37.541 48.3051 36.8613 48.4692 36.2129C48.2661 36.2051 48.059 36.1738 47.8481 36.1191C47.6371 36.0645 47.4457 35.9902 47.2739 35.8965C47.102 35.8027 46.9614 35.6895 46.852 35.5566C46.7426 35.416 46.6879 35.2559 46.6879 35.0762C46.6879 35.0059 46.7036 34.916 46.7348 34.8066C46.7661 34.6973 46.809 34.5918 46.8637 34.4902C46.9262 34.3809 47.0043 34.291 47.0981 34.2207C47.1918 34.1426 47.2973 34.1035 47.4145 34.1035H48.9848C49.1332 34.1035 49.2348 34.041 49.2895 33.916C49.3442 33.7832 49.3871 33.6543 49.4184 33.5293C49.52 33.0762 49.6137 32.6855 49.6996 32.3574C49.7934 32.0215 49.8715 31.7402 49.934 31.5137C49.9965 31.2793 50.0434 31.0918 50.0746 30.9512C50.1137 30.8027 50.1332 30.6855 50.1332 30.5996C50.1332 30.498 50.1293 30.4004 50.1215 30.3066C50.1137 30.2129 50.1098 30.084 50.1098 29.9199V29.8027C50.1098 29.7402 50.1137 29.6582 50.1215 29.5566C50.1371 29.4551 50.1762 29.3105 50.2387 29.123C50.2856 28.9746 50.3715 28.834 50.4965 28.7012C50.6215 28.5684 50.8051 28.502 51.0473 28.502C51.2582 28.502 51.4379 28.5449 51.5864 28.6309C51.7348 28.7168 51.8559 28.8301 51.9496 28.9707C52.0434 29.1113 52.1137 29.2715 52.1606 29.4512C52.2075 29.6309 52.2309 29.8105 52.2309 29.9902C52.2309 30.1855 52.2114 30.3613 52.1723 30.5176L51.3168 33.7988C51.7387 33.7285 52.1137 33.6621 52.4418 33.5996C52.77 33.5371 53.0981 33.4746 53.4262 33.4121C53.7856 33.3418 54.0942 33.2754 54.352 33.2129C54.6176 33.1504 54.8442 33.0996 55.0317 33.0605C55.2192 33.0137 55.3754 32.9785 55.5004 32.9551C55.6332 32.9238 55.7426 32.9082 55.8286 32.9082C55.9536 32.9082 56.0786 32.9199 56.2036 32.9434C56.3364 32.959 56.4496 32.9902 56.5434 33.0371C56.645 33.084 56.727 33.1504 56.7895 33.2363C56.852 33.3223 56.8832 33.4355 56.8832 33.5762C56.8832 33.7637 56.8442 33.9316 56.7661 34.0801C56.6957 34.2207 56.602 34.3457 56.4848 34.4551C56.3676 34.5566 56.2348 34.6426 56.0864 34.7129C55.9379 34.7754 55.7895 34.8223 55.6411 34.8535C55.5161 34.877 55.352 34.9121 55.1489 34.959C54.9536 35.0059 54.7348 35.0566 54.4926 35.1113C54.2582 35.166 54.0121 35.2246 53.7543 35.2871C53.4965 35.3496 53.2465 35.4121 53.0043 35.4746C52.645 35.5684 52.3364 35.6465 52.0786 35.709C51.8286 35.7715 51.6137 35.8184 51.434 35.8496C51.2543 35.8809 51.1059 35.9043 50.9887 35.9199C50.8793 35.9355 50.7895 35.9434 50.7192 35.9434C50.5707 36.3887 50.4418 36.8262 50.3325 37.2559C50.2231 37.6855 50.1293 38.0879 50.0512 38.4629C49.9809 38.8301 49.9262 39.1621 49.8871 39.459C49.8559 39.748 49.8403 39.9746 49.8403 40.1387C49.8403 40.3496 49.8598 40.5527 49.8989 40.748C49.9379 40.9355 50.0043 41.0996 50.0981 41.2402C50.1918 41.3809 50.3168 41.4941 50.4731 41.5801C50.6371 41.6582 50.8403 41.6973 51.0825 41.6973C51.4965 41.6973 51.9028 41.584 52.3012 41.3574C52.6996 41.1309 53.0786 40.8457 53.4379 40.502C53.8051 40.1504 54.1489 39.7676 54.4692 39.3535C54.7973 38.9395 55.0981 38.5449 55.3715 38.1699C55.4653 38.0293 55.5864 37.959 55.7348 37.959C55.7817 37.959 55.8364 37.9668 55.8989 37.9824C55.9692 37.998 56.0356 38.0254 56.0981 38.0645C56.1606 38.1035 56.2114 38.1543 56.2504 38.2168C56.2973 38.2793 56.3207 38.3535 56.3207 38.4395C56.3207 38.502 56.3168 38.5488 56.309 38.5801C56.184 39.0645 55.9887 39.5527 55.7231 40.0449C55.4653 40.5293 55.1996 41.0176 54.9262 41.5098C54.8325 41.6816 54.7075 41.8496 54.5512 42.0137C54.4028 42.1777 54.2387 42.3379 54.059 42.4941C53.8793 42.6426 53.6918 42.7871 53.4965 42.9277C53.3012 43.0605 53.1176 43.1816 52.9457 43.291C52.6489 43.4785 52.3246 43.6074 51.9731 43.6777C51.6215 43.748 51.2817 43.7832 50.9536 43.7832C50.4457 43.7832 49.9926 43.6934 49.5942 43.5137C49.2036 43.3262 48.8715 43.0762 48.5981 42.7637C48.3325 42.4434 48.1293 42.0723 47.9887 41.6504C47.8481 41.2285 47.7778 40.7754 47.7778 40.291ZM71.2162 40.291C71.2162 39.6348 71.2904 38.9551 71.4389 38.252C71.5873 37.541 71.7436 36.8613 71.9076 36.2129C71.7045 36.2051 71.4975 36.1738 71.2865 36.1191C71.0756 36.0645 70.8842 35.9902 70.7123 35.8965C70.5404 35.8027 70.3998 35.6895 70.2904 35.5566C70.1811 35.416 70.1264 35.2559 70.1264 35.0762C70.1264 35.0059 70.142 34.916 70.1732 34.8066C70.2045 34.6973 70.2475 34.5918 70.3021 34.4902C70.3646 34.3809 70.4428 34.291 70.5365 34.2207C70.6303 34.1426 70.7357 34.1035 70.8529 34.1035H72.4232C72.5717 34.1035 72.6732 34.041 72.7279 33.916C72.7826 33.7832 72.8256 33.6543 72.8568 33.5293C72.9584 33.0762 73.0521 32.6855 73.1381 32.3574C73.2318 32.0215 73.31 31.7402 73.3725 31.5137C73.435 31.2793 73.4818 31.0918 73.5131 30.9512C73.5521 30.8027 73.5717 30.6855 73.5717 30.5996C73.5717 30.498 73.5678 30.4004 73.56 30.3066C73.5521 30.2129 73.5482 30.084 73.5482 29.9199V29.8027C73.5482 29.7402 73.5521 29.6582 73.56 29.5566C73.5756 29.4551 73.6146 29.3105 73.6771 29.123C73.724 28.9746 73.81 28.834 73.935 28.7012C74.06 28.5684 74.2436 28.502 74.4857 28.502C74.6967 28.502 74.8764 28.5449 75.0248 28.6309C75.1732 28.7168 75.2943 28.8301 75.3881 28.9707C75.4818 29.1113 75.5521 29.2715 75.599 29.4512C75.6459 29.6309 75.6693 29.8105 75.6693 29.9902C75.6693 30.1855 75.6498 30.3613 75.6107 30.5176L74.7553 33.7988C75.1771 33.7285 75.5521 33.6621 75.8803 33.5996C76.2084 33.5371 76.5365 33.4746 76.8646 33.4121C77.224 33.3418 77.5326 33.2754 77.7904 33.2129C78.0561 33.1504 78.2826 33.0996 78.4701 33.0605C78.6576 33.0137 78.8139 32.9785 78.9389 32.9551C79.0717 32.9238 79.1811 32.9082 79.267 32.9082C79.392 32.9082 79.517 32.9199 79.642 32.9434C79.7748 32.959 79.8881 32.9902 79.9818 33.0371C80.0834 33.084 80.1654 33.1504 80.2279 33.2363C80.2904 33.3223 80.3217 33.4355 80.3217 33.5762C80.3217 33.7637 80.2826 33.9316 80.2045 34.0801C80.1342 34.2207 80.0404 34.3457 79.9232 34.4551C79.8061 34.5566 79.6732 34.6426 79.5248 34.7129C79.3764 34.7754 79.2279 34.8223 79.0795 34.8535C78.9545 34.877 78.7904 34.9121 78.5873 34.959C78.392 35.0059 78.1732 35.0566 77.9311 35.1113C77.6967 35.166 77.4506 35.2246 77.1928 35.2871C76.935 35.3496 76.685 35.4121 76.4428 35.4746C76.0834 35.5684 75.7748 35.6465 75.517 35.709C75.267 35.7715 75.0521 35.8184 74.8725 35.8496C74.6928 35.8809 74.5443 35.9043 74.4271 35.9199C74.3178 35.9355 74.2279 35.9434 74.1576 35.9434C74.0092 36.3887 73.8803 36.8262 73.7709 37.2559C73.6615 37.6855 73.5678 38.0879 73.4896 38.4629C73.4193 38.8301 73.3646 39.1621 73.3256 39.459C73.2943 39.748 73.2787 39.9746 73.2787 40.1387C73.2787 40.3496 73.2982 40.5527 73.3373 40.748C73.3764 40.9355 73.4428 41.0996 73.5365 41.2402C73.6303 41.3809 73.7553 41.4941 73.9115 41.5801C74.0756 41.6582 74.2787 41.6973 74.5209 41.6973C74.935 41.6973 75.3412 41.584 75.7396 41.3574C76.1381 41.1309 76.517 40.8457 76.8764 40.502C77.2436 40.1504 77.5873 39.7676 77.9076 39.3535C78.2357 38.9395 78.5365 38.5449 78.81 38.1699C78.9037 38.0293 79.0248 37.959 79.1732 37.959C79.2201 37.959 79.2748 37.9668 79.3373 37.9824C79.4076 37.998 79.474 38.0254 79.5365 38.0645C79.599 38.1035 79.6498 38.1543 79.6889 38.2168C79.7357 38.2793 79.7592 38.3535 79.7592 38.4395C79.7592 38.502 79.7553 38.5488 79.7475 38.5801C79.6225 39.0645 79.4271 39.5527 79.1615 40.0449C78.9037 40.5293 78.6381 41.0176 78.3646 41.5098C78.2709 41.6816 78.1459 41.8496 77.9896 42.0137C77.8412 42.1777 77.6771 42.3379 77.4975 42.4941C77.3178 42.6426 77.1303 42.7871 76.935 42.9277C76.7396 43.0605 76.5561 43.1816 76.3842 43.291C76.0873 43.4785 75.7631 43.6074 75.4115 43.6777C75.06 43.748 74.7201 43.7832 74.392 43.7832C73.8842 43.7832 73.4311 43.6934 73.0326 43.5137C72.642 43.3262 72.31 43.0762 72.0365 42.7637C71.7709 42.4434 71.5678 42.0723 71.4271 41.6504C71.2865 41.2285 71.2162 40.7754 71.2162 40.291ZM81.8573 39.4473C81.9745 38.9707 82.1542 38.4668 82.3964 37.9355C82.6464 37.3965 82.9706 36.8535 83.369 36.3066C83.7675 35.7598 84.244 35.2246 84.7987 34.7012C85.3612 34.1777 86.0097 33.6895 86.744 33.2363C86.8612 33.166 87.0409 33.0918 87.2831 33.0137C87.5253 32.9277 87.7753 32.877 88.0331 32.8613C88.3378 32.5332 88.7479 32.3691 89.2636 32.3691C89.8729 32.3691 90.3847 32.5254 90.7987 32.8379C91.2206 33.1426 91.5682 33.5605 91.8417 34.0918C91.9276 34.2637 92.0057 34.4316 92.0761 34.5957C92.1542 34.7598 92.2167 34.9355 92.2636 35.123C92.3182 35.3027 92.3612 35.498 92.3925 35.709C92.4237 35.9199 92.4393 36.1582 92.4393 36.4238C92.4393 37.041 92.3417 37.6699 92.1464 38.3105C91.9511 38.9512 91.6737 39.5762 91.3143 40.1855C90.955 40.7949 90.5175 41.3809 90.0018 41.9434C89.494 42.498 88.9276 42.998 88.3026 43.4434C87.8807 43.748 87.412 43.9824 86.8964 44.1465C86.3886 44.3184 85.8182 44.4043 85.1854 44.4043C84.5839 44.4043 84.0604 44.3223 83.6151 44.1582C83.1776 44.002 82.8104 43.7754 82.5136 43.4785C82.2245 43.1816 82.0057 42.8262 81.8573 42.4121C81.7167 41.998 81.6464 41.5371 81.6464 41.0293C81.6464 40.5371 81.7167 40.0098 81.8573 39.4473ZM83.8026 39.5996C83.7557 39.7793 83.7206 39.9512 83.6972 40.1152C83.6815 40.2715 83.6737 40.4238 83.6737 40.5723C83.6737 40.8301 83.705 41.0723 83.7675 41.2988C83.8378 41.5176 83.9472 41.709 84.0956 41.873C84.244 42.0293 84.4276 42.1543 84.6464 42.248C84.8729 42.334 85.1464 42.377 85.4667 42.377C86.0604 42.377 86.6112 42.2285 87.119 41.9316C87.6347 41.627 88.0917 41.248 88.4901 40.7949C88.8886 40.3418 89.2206 39.8574 89.4862 39.3418C89.7597 38.8184 89.9511 38.3379 90.0604 37.9004C90.1307 37.627 90.1893 37.3691 90.2362 37.127C90.2909 36.8848 90.3182 36.6621 90.3182 36.459C90.3182 36.2559 90.2792 36.0684 90.2011 35.8965C90.1307 35.7168 90.037 35.5176 89.9198 35.2988C89.8495 35.166 89.7792 35.0293 89.7089 34.8887C89.6386 34.7402 89.5761 34.5957 89.5214 34.4551C89.4589 34.5645 89.3925 34.6621 89.3222 34.748C89.2518 34.8262 89.1464 34.9004 89.0057 34.9707C88.8651 35.0332 88.6737 35.0918 88.4315 35.1465C88.1893 35.2012 87.8729 35.248 87.4823 35.2871C87.2245 35.373 86.9628 35.5059 86.6972 35.6855C86.4315 35.8652 86.1698 36.0762 85.912 36.3184C85.662 36.5605 85.4198 36.8223 85.1854 37.1035C84.9589 37.3848 84.7518 37.6738 84.5643 37.9707C84.3847 38.2598 84.2245 38.5449 84.0839 38.8262C83.9511 39.1074 83.8573 39.3652 83.8026 39.5996ZM101.475 49.3496C101.155 49.3496 100.917 49.2598 100.761 49.0801C100.597 48.9082 100.514 48.7207 100.514 48.5176C100.514 48.1895 100.612 47.9043 100.807 47.6621C100.995 47.4277 101.222 47.2168 101.487 47.0293C101.753 46.8496 102.026 46.6855 102.307 46.5371C102.581 46.3965 102.8 46.2559 102.964 46.1152C103.315 45.8184 103.628 45.4785 103.901 45.0957C104.175 44.7129 104.389 44.3574 104.546 44.0293C104.796 43.5137 105.03 42.9434 105.249 42.3184C105.475 41.6934 105.682 41.0488 105.87 40.3848C106.057 39.7129 106.225 39.0332 106.374 38.3457C106.53 37.6582 106.667 36.9941 106.784 36.3535C106.823 36.166 106.843 35.9902 106.843 35.8262C106.85 35.6543 106.858 35.4863 106.866 35.3223C106.882 34.916 106.921 34.5918 106.983 34.3496C107.046 34.0996 107.132 33.9082 107.241 33.7754C107.358 33.6426 107.495 33.5566 107.651 33.5176C107.815 33.4707 108.003 33.4473 108.214 33.4473C108.651 33.4473 108.956 33.5566 109.128 33.7754C109.3 33.9863 109.386 34.2988 109.386 34.7129C109.386 34.9395 109.35 35.2793 109.28 35.7324C109.218 36.1855 109.12 36.7129 108.987 37.3145C108.862 37.916 108.706 38.5684 108.518 39.2715C108.331 39.9746 108.116 40.6895 107.874 41.416C107.632 42.1426 107.362 42.8574 107.065 43.5605C106.776 44.2637 106.464 44.916 106.128 45.5176C106.05 45.6504 105.956 45.7871 105.847 45.9277C105.745 46.0762 105.636 46.2207 105.518 46.3613C105.401 46.5098 105.284 46.6504 105.167 46.7832C105.057 46.916 104.956 47.0371 104.862 47.1465C104.55 47.5137 104.257 47.834 103.983 48.1074C103.71 48.3809 103.436 48.6074 103.163 48.7871C102.897 48.9746 102.628 49.1152 102.354 49.209C102.081 49.3027 101.788 49.3496 101.475 49.3496ZM107.569 30.166C107.569 29.877 107.643 29.627 107.792 29.416C107.94 29.2051 108.124 29.0293 108.343 28.8887C108.514 28.7793 108.667 28.6934 108.8 28.6309C108.94 28.5605 109.089 28.5254 109.245 28.5254C109.456 28.5254 109.632 28.5605 109.772 28.6309C109.921 28.6934 110.038 28.7832 110.124 28.9004C110.21 29.0098 110.268 29.1348 110.3 29.2754C110.339 29.4082 110.358 29.5449 110.358 29.6855C110.358 29.9668 110.307 30.2324 110.206 30.4824C110.104 30.7324 109.905 30.9746 109.608 31.209C109.499 31.2949 109.389 31.3652 109.28 31.4199C109.171 31.4668 109.057 31.4902 108.94 31.4902C108.542 31.4902 108.214 31.373 107.956 31.1387C107.698 30.9043 107.569 30.5801 107.569 30.166ZM110.956 39.4473C111.074 38.9707 111.253 38.4668 111.495 37.9355C111.745 37.3965 112.07 36.8535 112.468 36.3066C112.867 35.7598 113.343 35.2246 113.898 34.7012C114.46 34.1777 115.109 33.6895 115.843 33.2363C115.96 33.166 116.14 33.0918 116.382 33.0137C116.624 32.9277 116.874 32.877 117.132 32.8613C117.437 32.5332 117.847 32.3691 118.363 32.3691C118.972 32.3691 119.484 32.5254 119.898 32.8379C120.32 33.1426 120.667 33.5605 120.941 34.0918C121.027 34.2637 121.105 34.4316 121.175 34.5957C121.253 34.7598 121.316 34.9355 121.363 35.123C121.417 35.3027 121.46 35.498 121.492 35.709C121.523 35.9199 121.538 36.1582 121.538 36.4238C121.538 37.041 121.441 37.6699 121.245 38.3105C121.05 38.9512 120.773 39.5762 120.413 40.1855C120.054 40.7949 119.617 41.3809 119.101 41.9434C118.593 42.498 118.027 42.998 117.402 43.4434C116.98 43.748 116.511 43.9824 115.995 44.1465C115.488 44.3184 114.917 44.4043 114.284 44.4043C113.683 44.4043 113.159 44.3223 112.714 44.1582C112.277 44.002 111.909 43.7754 111.613 43.4785C111.324 43.1816 111.105 42.8262 110.956 42.4121C110.816 41.998 110.745 41.5371 110.745 41.0293C110.745 40.5371 110.816 40.0098 110.956 39.4473ZM112.902 39.5996C112.855 39.7793 112.82 39.9512 112.796 40.1152C112.781 40.2715 112.773 40.4238 112.773 40.5723C112.773 40.8301 112.804 41.0723 112.867 41.2988C112.937 41.5176 113.046 41.709 113.195 41.873C113.343 42.0293 113.527 42.1543 113.745 42.248C113.972 42.334 114.245 42.377 114.566 42.377C115.159 42.377 115.71 42.2285 116.218 41.9316C116.734 41.627 117.191 41.248 117.589 40.7949C117.988 40.3418 118.32 39.8574 118.585 39.3418C118.859 38.8184 119.05 38.3379 119.159 37.9004C119.23 37.627 119.288 37.3691 119.335 37.127C119.39 36.8848 119.417 36.6621 119.417 36.459C119.417 36.2559 119.378 36.0684 119.3 35.8965C119.23 35.7168 119.136 35.5176 119.019 35.2988C118.949 35.166 118.878 35.0293 118.808 34.8887C118.738 34.7402 118.675 34.5957 118.62 34.4551C118.558 34.5645 118.492 34.6621 118.421 34.748C118.351 34.8262 118.245 34.9004 118.105 34.9707C117.964 35.0332 117.773 35.0918 117.531 35.1465C117.288 35.2012 116.972 35.248 116.581 35.2871C116.324 35.373 116.062 35.5059 115.796 35.6855C115.531 35.8652 115.269 36.0762 115.011 36.3184C114.761 36.5605 114.519 36.8223 114.284 37.1035C114.058 37.3848 113.851 37.6738 113.663 37.9707C113.484 38.2598 113.324 38.5449 113.183 38.8262C113.05 39.1074 112.956 39.3652 112.902 39.5996ZM123.039 41.791C123.156 41.3379 123.297 40.8105 123.461 40.209C123.625 39.6074 123.797 38.9707 123.976 38.2988C124.164 37.627 124.351 36.9395 124.539 36.2363C124.726 35.5332 124.902 34.8496 125.066 34.1855C125.074 34.1543 125.101 34.1035 125.148 34.0332C125.195 33.9551 125.262 33.8809 125.347 33.8105C125.433 33.7324 125.543 33.666 125.676 33.6113C125.808 33.5566 125.965 33.5293 126.144 33.5293C126.277 33.5293 126.406 33.5449 126.531 33.5762C126.656 33.5996 126.765 33.6387 126.859 33.6934C126.961 33.748 127.039 33.8223 127.094 33.916C127.156 34.002 127.187 34.1035 127.187 34.2207C127.187 34.2441 127.187 34.2715 127.187 34.3027C127.187 34.3262 127.183 34.3496 127.176 34.373L126.847 35.6152C126.48 37.0059 126.105 38.4004 125.722 39.7988C125.347 41.1973 124.98 42.5996 124.621 44.0059C124.605 44.0527 124.582 44.1113 124.551 44.1816C124.519 44.252 124.476 44.3223 124.422 44.3926C124.367 44.4629 124.301 44.5215 124.222 44.5684C124.144 44.6152 124.051 44.6387 123.941 44.6387C123.738 44.6387 123.558 44.5957 123.402 44.5098C123.246 44.4316 123.113 44.3301 123.004 44.2051C122.894 44.0801 122.812 43.9434 122.758 43.7949C122.703 43.6465 122.676 43.5059 122.676 43.373C122.676 43.334 122.676 43.2988 122.676 43.2676C122.676 43.2363 122.683 43.2012 122.699 43.1621L123.039 41.791ZM126.097 29.6621C126.137 29.498 126.207 29.2988 126.308 29.0645C126.41 28.8301 126.59 28.6191 126.847 28.4316C126.972 28.3613 127.125 28.2988 127.304 28.2441C127.484 28.1816 127.613 28.1504 127.691 28.1504C127.769 28.1504 127.847 28.1777 127.926 28.2324C128.012 28.2871 128.086 28.3457 128.148 28.4082C128.226 28.4863 128.301 28.5723 128.371 28.666C128.566 28.6816 128.691 28.752 128.746 28.877C128.808 29.002 128.84 29.1504 128.84 29.3223C128.84 29.4473 128.828 29.5605 128.804 29.6621C128.781 29.7637 128.762 29.8457 128.746 29.9082C128.699 30.0723 128.609 30.2246 128.476 30.3652C128.344 30.498 128.191 30.6152 128.019 30.7168C127.847 30.8105 127.668 30.8848 127.48 30.9395C127.293 30.9941 127.129 31.0215 126.988 31.0215C126.808 31.0215 126.668 30.9902 126.566 30.9277C126.472 30.8652 126.351 30.7324 126.203 30.5293C126.117 30.4121 126.066 30.3223 126.051 30.2598C126.043 30.1895 126.039 30.1309 126.039 30.084C126.039 29.998 126.043 29.9238 126.051 29.8613C126.066 29.791 126.082 29.7246 126.097 29.6621ZM136.973 34.3145C136.699 34.3145 136.407 34.3809 136.094 34.5137C135.782 34.6387 135.457 34.8105 135.121 35.0293C134.785 35.248 134.442 35.498 134.09 35.7793C133.746 36.0527 133.407 36.3379 133.071 36.6348C132.899 36.7832 132.735 36.9199 132.578 37.0449C132.422 37.1621 132.266 37.252 132.11 37.3145C132 37.4941 131.883 37.7324 131.758 38.0293C131.641 38.3184 131.524 38.6387 131.407 38.9902C131.289 39.334 131.176 39.6895 131.067 40.0566C130.965 40.416 130.879 40.752 130.809 41.0645C130.77 41.2285 130.739 41.3887 130.715 41.5449C130.692 41.7012 130.664 41.8691 130.633 42.0488C130.602 42.2207 130.563 42.4082 130.516 42.6113C130.477 42.8145 130.426 43.041 130.364 43.291C130.324 43.4395 130.262 43.5605 130.176 43.6543C130.09 43.7402 130 43.8066 129.907 43.8535C129.813 43.9004 129.723 43.9277 129.637 43.9355C129.551 43.9512 129.485 43.959 129.438 43.959C129.141 43.959 128.899 43.8887 128.711 43.748C128.524 43.6074 128.43 43.334 128.43 42.9277C128.43 42.8184 128.434 42.7051 128.442 42.5879C128.449 42.4629 128.473 42.3262 128.512 42.1777C128.684 41.4355 128.848 40.7676 129.004 40.1738C129.168 39.5801 129.332 39.0293 129.496 38.5215C129.66 38.0137 129.824 37.5371 129.989 37.0918C130.16 36.6387 130.332 36.1855 130.504 35.7324C130.684 35.2715 130.867 34.7988 131.055 34.3145C131.25 33.8223 131.457 33.2793 131.676 32.6855C131.723 32.5527 131.844 32.4434 132.039 32.3574C132.242 32.2637 132.457 32.2168 132.684 32.2168C132.981 32.2168 133.223 32.2832 133.41 32.416C133.606 32.5488 133.703 32.7402 133.703 32.9902C133.703 33.0137 133.696 33.0566 133.68 33.1191C133.664 33.1816 133.641 33.248 133.61 33.3184L133.094 34.5371C133.422 34.2793 133.762 34.0215 134.114 33.7637C134.473 33.5059 134.84 33.2754 135.215 33.0723C135.59 32.8613 135.965 32.6934 136.34 32.5684C136.723 32.4355 137.098 32.3691 137.465 32.3691C138.215 32.3691 138.801 32.5723 139.223 32.9785C139.645 33.377 139.856 33.998 139.856 34.8418C139.856 35.3262 139.77 35.877 139.598 36.4941C139.434 37.1113 139.223 37.7754 138.965 38.4863C138.715 39.1895 138.442 39.9316 138.145 40.7129C137.856 41.4863 137.586 42.2754 137.336 43.0801C137.266 43.2988 137.192 43.4824 137.114 43.6309C137.043 43.7793 136.957 43.8965 136.856 43.9824C136.754 44.0762 136.633 44.1426 136.492 44.1816C136.36 44.2207 136.196 44.2402 136 44.2402C135.696 44.2402 135.485 44.1816 135.367 44.0645C135.25 43.9551 135.192 43.7754 135.192 43.5254C135.192 43.3066 135.223 43.041 135.285 42.7285C135.356 42.4082 135.449 42.0605 135.567 41.6855C135.692 41.3027 135.832 40.8965 135.989 40.4668C136.153 40.0371 136.328 39.5996 136.516 39.1543C136.664 38.7949 136.809 38.4355 136.949 38.0762C137.098 37.7168 137.227 37.3691 137.336 37.0332C137.453 36.6973 137.547 36.377 137.617 36.0723C137.688 35.7676 137.723 35.4863 137.723 35.2285C137.723 34.9863 137.668 34.7754 137.559 34.5957C137.457 34.4082 137.262 34.3145 136.973 34.3145ZM2.1084 79.291C2.1084 78.6348 2.18262 77.9551 2.33105 77.252C2.47949 76.541 2.63574 75.8613 2.7998 75.2129C2.59668 75.2051 2.38965 75.1738 2.17871 75.1191C1.96777 75.0645 1.77637 74.9902 1.60449 74.8965C1.43262 74.8027 1.29199 74.6895 1.18262 74.5566C1.07324 74.416 1.01855 74.2559 1.01855 74.0762C1.01855 74.0059 1.03418 73.916 1.06543 73.8066C1.09668 73.6973 1.13965 73.5918 1.19434 73.4902C1.25684 73.3809 1.33496 73.291 1.42871 73.2207C1.52246 73.1426 1.62793 73.1035 1.74512 73.1035H3.31543C3.46387 73.1035 3.56543 73.041 3.62012 72.916C3.6748 72.7832 3.71777 72.6543 3.74902 72.5293C3.85059 72.0762 3.94434 71.6855 4.03027 71.3574C4.12402 71.0215 4.20215 70.7402 4.26465 70.5137C4.32715 70.2793 4.37402 70.0918 4.40527 69.9512C4.44434 69.8027 4.46387 69.6855 4.46387 69.5996C4.46387 69.498 4.45996 69.4004 4.45215 69.3066C4.44434 69.2129 4.44043 69.084 4.44043 68.9199V68.8027C4.44043 68.7402 4.44434 68.6582 4.45215 68.5566C4.46777 68.4551 4.50684 68.3105 4.56934 68.123C4.61621 67.9746 4.70215 67.834 4.82715 67.7012C4.95215 67.5684 5.13574 67.502 5.37793 67.502C5.58887 67.502 5.76855 67.5449 5.91699 67.6309C6.06543 67.7168 6.18652 67.8301 6.28027 67.9707C6.37402 68.1113 6.44434 68.2715 6.49121 68.4512C6.53809 68.6309 6.56152 68.8105 6.56152 68.9902C6.56152 69.1855 6.54199 69.3613 6.50293 69.5176L5.64746 72.7988C6.06934 72.7285 6.44434 72.6621 6.77246 72.5996C7.10059 72.5371 7.42871 72.4746 7.75684 72.4121C8.11621 72.3418 8.4248 72.2754 8.68262 72.2129C8.94824 72.1504 9.1748 72.0996 9.3623 72.0605C9.5498 72.0137 9.70605 71.9785 9.83105 71.9551C9.96387 71.9238 10.0732 71.9082 10.1592 71.9082C10.2842 71.9082 10.4092 71.9199 10.5342 71.9434C10.667 71.959 10.7803 71.9902 10.874 72.0371C10.9756 72.084 11.0576 72.1504 11.1201 72.2363C11.1826 72.3223 11.2139 72.4355 11.2139 72.5762C11.2139 72.7637 11.1748 72.9316 11.0967 73.0801C11.0264 73.2207 10.9326 73.3457 10.8154 73.4551C10.6982 73.5566 10.5654 73.6426 10.417 73.7129C10.2686 73.7754 10.1201 73.8223 9.97168 73.8535C9.84668 73.877 9.68262 73.9121 9.47949 73.959C9.28418 74.0059 9.06543 74.0566 8.82324 74.1113C8.58887 74.166 8.34277 74.2246 8.08496 74.2871C7.82715 74.3496 7.57715 74.4121 7.33496 74.4746C6.97559 74.5684 6.66699 74.6465 6.40918 74.709C6.15918 74.7715 5.94434 74.8184 5.76465 74.8496C5.58496 74.8809 5.43652 74.9043 5.31934 74.9199C5.20996 74.9355 5.12012 74.9434 5.0498 74.9434C4.90137 75.3887 4.77246 75.8262 4.66309 76.2559C4.55371 76.6855 4.45996 77.0879 4.38184 77.4629C4.31152 77.8301 4.25684 78.1621 4.21777 78.459C4.18652 78.748 4.1709 78.9746 4.1709 79.1387C4.1709 79.3496 4.19043 79.5527 4.22949 79.748C4.26855 79.9355 4.33496 80.0996 4.42871 80.2402C4.52246 80.3809 4.64746 80.4941 4.80371 80.5801C4.96777 80.6582 5.1709 80.6973 5.41309 80.6973C5.82715 80.6973 6.2334 80.584 6.63184 80.3574C7.03027 80.1309 7.40918 79.8457 7.76855 79.502C8.13574 79.1504 8.47949 78.7676 8.7998 78.3535C9.12793 77.9395 9.42871 77.5449 9.70215 77.1699C9.7959 77.0293 9.91699 76.959 10.0654 76.959C10.1123 76.959 10.167 76.9668 10.2295 76.9824C10.2998 76.998 10.3662 77.0254 10.4287 77.0645C10.4912 77.1035 10.542 77.1543 10.5811 77.2168C10.6279 77.2793 10.6514 77.3535 10.6514 77.4395C10.6514 77.502 10.6475 77.5488 10.6396 77.5801C10.5146 78.0645 10.3193 78.5527 10.0537 79.0449C9.7959 79.5293 9.53027 80.0176 9.25684 80.5098C9.16309 80.6816 9.03809 80.8496 8.88184 81.0137C8.7334 81.1777 8.56934 81.3379 8.38965 81.4941C8.20996 81.6426 8.02246 81.7871 7.82715 81.9277C7.63184 82.0605 7.44824 82.1816 7.27637 82.291C6.97949 82.4785 6.65527 82.6074 6.30371 82.6777C5.95215 82.748 5.6123 82.7832 5.28418 82.7832C4.77637 82.7832 4.32324 82.6934 3.9248 82.5137C3.53418 82.3262 3.20215 82.0762 2.92871 81.7637C2.66309 81.4434 2.45996 81.0723 2.31934 80.6504C2.17871 80.2285 2.1084 79.7754 2.1084 79.291ZM20.7182 83.6035C20.2339 83.6035 19.9018 83.498 19.7221 83.2871C19.5425 83.0762 19.4526 82.7871 19.4526 82.4199C19.4526 82.2246 19.4721 82.0137 19.5112 81.7871C19.5503 81.5605 19.6011 81.3262 19.6636 81.084C19.7729 80.6699 19.894 80.2598 20.0268 79.8535C20.1675 79.4395 20.3042 79.0254 20.437 78.6113C20.5776 78.1895 20.7104 77.7715 20.8354 77.3574C20.9682 76.9355 21.0854 76.5137 21.187 76.0918C21.1948 76.0527 21.1987 76.002 21.1987 75.9395C21.1987 75.8301 21.1714 75.7441 21.1167 75.6816C21.062 75.6191 20.98 75.5879 20.8706 75.5879C20.6987 75.5879 20.5112 75.623 20.3081 75.6934C20.1128 75.7637 19.9487 75.8418 19.8159 75.9277C19.2925 76.2793 18.8315 76.627 18.4331 76.9707C18.0425 77.3145 17.6831 77.6738 17.355 78.0488C17.0268 78.4238 16.7143 78.8262 16.4175 79.2559C16.1284 79.6777 15.8237 80.1426 15.5034 80.6504C15.23 81.1582 15.0268 81.5918 14.894 81.9512C14.7612 82.3027 14.6362 82.5879 14.519 82.8066C14.4096 83.0254 14.2846 83.1816 14.144 83.2754C14.0034 83.377 13.7925 83.4277 13.5112 83.4277C13.1987 83.4277 12.9761 83.3379 12.8432 83.1582C12.7182 82.9785 12.6557 82.7441 12.6557 82.4551C12.6557 82.2285 12.6909 81.9746 12.7612 81.6934L16.6284 66.2012C16.6518 66.1074 16.6909 66.0059 16.7456 65.8965C16.8003 65.7871 16.8745 65.6855 16.9682 65.5918C17.062 65.498 17.1714 65.4199 17.2964 65.3574C17.4292 65.2949 17.5776 65.2637 17.7417 65.2637C17.8667 65.2637 17.9995 65.2715 18.1401 65.2871C18.2807 65.2949 18.4057 65.3184 18.5151 65.3574C18.6323 65.3887 18.7261 65.4434 18.7964 65.5215C18.8745 65.5996 18.9136 65.7012 18.9136 65.8262C18.9136 65.8574 18.9057 65.9238 18.8901 66.0254C18.8745 66.1191 18.8511 66.2285 18.8198 66.3535C18.3979 68.0488 17.9448 69.8145 17.4604 71.6504C16.9839 73.4863 16.4995 75.3418 16.0073 77.2168C16.4839 76.6309 16.98 76.0957 17.4956 75.6113C18.0112 75.1191 18.5386 74.6973 19.0776 74.3457C19.6245 73.9941 20.187 73.7207 20.7651 73.5254C21.3511 73.3223 21.9565 73.2207 22.5815 73.2207C22.98 73.2207 23.2886 73.3496 23.5073 73.6074C23.7261 73.8574 23.8354 74.1777 23.8354 74.5684C23.8354 74.748 23.812 74.9238 23.7651 75.0957C23.6714 75.4551 23.5659 75.8105 23.4487 76.1621C23.3315 76.5059 23.2104 76.8535 23.0854 77.2051C22.9604 77.5566 22.8354 77.916 22.7104 78.2832C22.5854 78.6426 22.4761 79.0137 22.3823 79.3965C22.2573 79.8887 22.1714 80.3574 22.1245 80.8027C22.0776 81.2402 22.0464 81.5918 22.0307 81.8574C22.0151 82.084 21.98 82.3027 21.9253 82.5137C21.8706 82.7246 21.7886 82.9082 21.6792 83.0645C21.5776 83.2285 21.4448 83.3574 21.2807 83.4512C21.1245 83.5527 20.937 83.6035 20.7182 83.6035ZM25.1836 78.4121C25.1836 78.0762 25.2734 77.791 25.4531 77.5566C25.6328 77.3223 25.8711 77.166 26.1679 77.0879C26.2539 76.916 26.3867 76.6855 26.5664 76.3965C26.7461 76.0996 26.9687 75.7793 27.2343 75.4355C27.5 75.0918 27.8007 74.748 28.1367 74.4043C28.4804 74.0527 28.8554 73.7363 29.2617 73.4551C29.6757 73.166 30.1171 72.9316 30.5859 72.752C31.0625 72.5723 31.5664 72.4824 32.0976 72.4824C32.5507 72.4824 32.9453 72.5371 33.2812 72.6465C33.6171 72.7559 33.8945 72.9082 34.1132 73.1035C34.332 73.2988 34.4961 73.5332 34.6054 73.8066C34.7148 74.0723 34.7695 74.3613 34.7695 74.6738C34.7695 74.9395 34.7343 75.1934 34.664 75.4355C34.5546 75.873 34.3515 76.2559 34.0546 76.584C33.7578 76.9121 33.4062 77.2012 33 77.4512C32.6015 77.6934 32.164 77.8965 31.6875 78.0605C31.2187 78.2246 30.7461 78.3613 30.2695 78.4707C29.8007 78.5801 29.3476 78.666 28.9101 78.7285C28.4726 78.7832 28.0937 78.8262 27.7734 78.8574C27.7031 78.998 27.6406 79.1777 27.5859 79.3965C27.539 79.6074 27.5156 79.8145 27.5156 80.0176C27.5156 80.4707 27.6953 80.8223 28.0546 81.0723C28.414 81.3223 28.9101 81.4473 29.5429 81.4473C29.9101 81.4473 30.2617 81.4082 30.5976 81.3301C30.9336 81.2441 31.25 81.1387 31.5468 81.0137C31.8515 80.8809 32.1367 80.7402 32.4023 80.5918C32.6679 80.4355 32.9101 80.2832 33.1289 80.1348C33.4101 79.9473 33.6757 79.791 33.9257 79.666C34.1836 79.5332 34.4101 79.4668 34.6054 79.4668C34.8007 79.4668 34.9257 79.5176 34.9804 79.6191C35.0351 79.7129 35.0625 79.8145 35.0625 79.9238C35.0625 79.9863 35.0586 80.0488 35.0507 80.1113C35.0507 80.166 35.0468 80.2129 35.039 80.252C35 80.4551 34.9218 80.6582 34.8046 80.8613C34.6875 81.0645 34.539 81.2402 34.3593 81.3887C33.5468 82.0293 32.7109 82.4863 31.8515 82.7598C31 83.0332 30.0898 83.1699 29.1211 83.1699C28.9336 83.1699 28.7109 83.1582 28.4531 83.1348C28.2031 83.1113 27.9414 83.0645 27.6679 82.9941C27.3945 82.9238 27.125 82.8223 26.8593 82.6895C26.5937 82.5566 26.3554 82.3809 26.1445 82.1621C25.9414 81.9434 25.7734 81.6738 25.6406 81.3535C25.5156 81.0332 25.4531 80.6465 25.4531 80.1934C25.4531 79.8262 25.5039 79.416 25.6054 78.9629C25.5039 78.9473 25.4062 78.8965 25.3125 78.8105C25.2265 78.7168 25.1836 78.584 25.1836 78.4121ZM32.5195 75.166C32.5351 75.127 32.5429 75.0918 32.5429 75.0605C32.5429 75.0293 32.5429 74.9941 32.5429 74.9551C32.5429 74.7441 32.4648 74.5879 32.3086 74.4863C32.1523 74.377 31.9648 74.3223 31.7461 74.3223C31.4023 74.3223 31.0625 74.4121 30.7265 74.5918C30.3984 74.7715 30.0859 74.998 29.789 75.2715C29.5 75.5371 29.2421 75.8262 29.0156 76.1387C28.789 76.4434 28.6132 76.7207 28.4882 76.9707C29.0507 76.9238 29.5664 76.8496 30.0351 76.748C30.5039 76.6387 30.9101 76.5059 31.2539 76.3496C31.6054 76.1855 31.8867 76.0059 32.0976 75.8105C32.3164 75.6074 32.457 75.3926 32.5195 75.166ZM49.6415 79.291C49.6415 78.6348 49.7157 77.9551 49.8642 77.252C50.0126 76.541 50.1689 75.8613 50.3329 75.2129C50.1298 75.2051 49.9228 75.1738 49.7118 75.1191C49.5009 75.0645 49.3095 74.9902 49.1376 74.8965C48.9657 74.8027 48.8251 74.6895 48.7157 74.5566C48.6064 74.416 48.5517 74.2559 48.5517 74.0762C48.5517 74.0059 48.5673 73.916 48.5986 73.8066C48.6298 73.6973 48.6728 73.5918 48.7275 73.4902C48.79 73.3809 48.8681 73.291 48.9618 73.2207C49.0556 73.1426 49.1611 73.1035 49.2782 73.1035H50.8486C50.997 73.1035 51.0986 73.041 51.1532 72.916C51.2079 72.7832 51.2509 72.6543 51.2822 72.5293C51.3837 72.0762 51.4775 71.6855 51.5634 71.3574C51.6572 71.0215 51.7353 70.7402 51.7978 70.5137C51.8603 70.2793 51.9072 70.0918 51.9384 69.9512C51.9775 69.8027 51.997 69.6855 51.997 69.5996C51.997 69.498 51.9931 69.4004 51.9853 69.3066C51.9775 69.2129 51.9736 69.084 51.9736 68.9199V68.8027C51.9736 68.7402 51.9775 68.6582 51.9853 68.5566C52.0009 68.4551 52.04 68.3105 52.1025 68.123C52.1493 67.9746 52.2353 67.834 52.3603 67.7012C52.4853 67.5684 52.6689 67.502 52.9111 67.502C53.122 67.502 53.3017 67.5449 53.4501 67.6309C53.5986 67.7168 53.7197 67.8301 53.8134 67.9707C53.9072 68.1113 53.9775 68.2715 54.0243 68.4512C54.0712 68.6309 54.0947 68.8105 54.0947 68.9902C54.0947 69.1855 54.0751 69.3613 54.0361 69.5176L53.1806 72.7988C53.6025 72.7285 53.9775 72.6621 54.3056 72.5996C54.6337 72.5371 54.9618 72.4746 55.29 72.4121C55.6493 72.3418 55.9579 72.2754 56.2157 72.2129C56.4814 72.1504 56.7079 72.0996 56.8954 72.0605C57.0829 72.0137 57.2392 71.9785 57.3642 71.9551C57.497 71.9238 57.6064 71.9082 57.6923 71.9082C57.8173 71.9082 57.9423 71.9199 58.0673 71.9434C58.2001 71.959 58.3134 71.9902 58.4072 72.0371C58.5087 72.084 58.5907 72.1504 58.6532 72.2363C58.7157 72.3223 58.747 72.4355 58.747 72.5762C58.747 72.7637 58.7079 72.9316 58.6298 73.0801C58.5595 73.2207 58.4657 73.3457 58.3486 73.4551C58.2314 73.5566 58.0986 73.6426 57.9501 73.7129C57.8017 73.7754 57.6532 73.8223 57.5048 73.8535C57.3798 73.877 57.2157 73.9121 57.0126 73.959C56.8173 74.0059 56.5986 74.0566 56.3564 74.1113C56.122 74.166 55.8759 74.2246 55.6181 74.2871C55.3603 74.3496 55.1103 74.4121 54.8681 74.4746C54.5087 74.5684 54.2001 74.6465 53.9423 74.709C53.6923 74.7715 53.4775 74.8184 53.2978 74.8496C53.1181 74.8809 52.9697 74.9043 52.8525 74.9199C52.7431 74.9355 52.6532 74.9434 52.5829 74.9434C52.4345 75.3887 52.3056 75.8262 52.1962 76.2559C52.0868 76.6855 51.9931 77.0879 51.915 77.4629C51.8447 77.8301 51.79 78.1621 51.7509 78.459C51.7197 78.748 51.704 78.9746 51.704 79.1387C51.704 79.3496 51.7236 79.5527 51.7626 79.748C51.8017 79.9355 51.8681 80.0996 51.9618 80.2402C52.0556 80.3809 52.1806 80.4941 52.3368 80.5801C52.5009 80.6582 52.704 80.6973 52.9462 80.6973C53.3603 80.6973 53.7665 80.584 54.165 80.3574C54.5634 80.1309 54.9423 79.8457 55.3017 79.502C55.6689 79.1504 56.0126 78.7676 56.3329 78.3535C56.6611 77.9395 56.9618 77.5449 57.2353 77.1699C57.329 77.0293 57.4501 76.959 57.5986 76.959C57.6454 76.959 57.7001 76.9668 57.7626 76.9824C57.8329 76.998 57.8993 77.0254 57.9618 77.0645C58.0243 77.1035 58.0751 77.1543 58.1142 77.2168C58.1611 77.2793 58.1845 77.3535 58.1845 77.4395C58.1845 77.502 58.1806 77.5488 58.1728 77.5801C58.0478 78.0645 57.8525 78.5527 57.5868 79.0449C57.329 79.5293 57.0634 80.0176 56.79 80.5098C56.6962 80.6816 56.5712 80.8496 56.415 81.0137C56.2665 81.1777 56.1025 81.3379 55.9228 81.4941C55.7431 81.6426 55.5556 81.7871 55.3603 81.9277C55.165 82.0605 54.9814 82.1816 54.8095 82.291C54.5126 82.4785 54.1884 82.6074 53.8368 82.6777C53.4853 82.748 53.1454 82.7832 52.8173 82.7832C52.3095 82.7832 51.8564 82.6934 51.4579 82.5137C51.0673 82.3262 50.7353 82.0762 50.4618 81.7637C50.1962 81.4434 49.9931 81.0723 49.8525 80.6504C49.7118 80.2285 49.6415 79.7754 49.6415 79.291ZM60.0014 78.4121C60.0014 78.0762 60.0912 77.791 60.2709 77.5566C60.4506 77.3223 60.6889 77.166 60.9857 77.0879C61.0717 76.916 61.2045 76.6855 61.3842 76.3965C61.5639 76.0996 61.7865 75.7793 62.0521 75.4355C62.3178 75.0918 62.6186 74.748 62.9545 74.4043C63.2982 74.0527 63.6732 73.7363 64.0795 73.4551C64.4936 73.166 64.935 72.9316 65.4037 72.752C65.8803 72.5723 66.3842 72.4824 66.9154 72.4824C67.3686 72.4824 67.7631 72.5371 68.099 72.6465C68.435 72.7559 68.7123 72.9082 68.9311 73.1035C69.1498 73.2988 69.3139 73.5332 69.4232 73.8066C69.5326 74.0723 69.5873 74.3613 69.5873 74.6738C69.5873 74.9395 69.5521 75.1934 69.4818 75.4355C69.3725 75.873 69.1693 76.2559 68.8725 76.584C68.5756 76.9121 68.224 77.2012 67.8178 77.4512C67.4193 77.6934 66.9818 77.8965 66.5053 78.0605C66.0365 78.2246 65.5639 78.3613 65.0873 78.4707C64.6186 78.5801 64.1654 78.666 63.7279 78.7285C63.2904 78.7832 62.9115 78.8262 62.5912 78.8574C62.5209 78.998 62.4584 79.1777 62.4037 79.3965C62.3568 79.6074 62.3334 79.8145 62.3334 80.0176C62.3334 80.4707 62.5131 80.8223 62.8725 81.0723C63.2318 81.3223 63.7279 81.4473 64.3607 81.4473C64.7279 81.4473 65.0795 81.4082 65.4154 81.3301C65.7514 81.2441 66.0678 81.1387 66.3646 81.0137C66.6693 80.8809 66.9545 80.7402 67.2201 80.5918C67.4857 80.4355 67.7279 80.2832 67.9467 80.1348C68.2279 79.9473 68.4936 79.791 68.7436 79.666C69.0014 79.5332 69.2279 79.4668 69.4232 79.4668C69.6186 79.4668 69.7436 79.5176 69.7982 79.6191C69.8529 79.7129 69.8803 79.8145 69.8803 79.9238C69.8803 79.9863 69.8764 80.0488 69.8686 80.1113C69.8686 80.166 69.8646 80.2129 69.8568 80.252C69.8178 80.4551 69.7396 80.6582 69.6225 80.8613C69.5053 81.0645 69.3568 81.2402 69.1771 81.3887C68.3646 82.0293 67.5287 82.4863 66.6693 82.7598C65.8178 83.0332 64.9076 83.1699 63.9389 83.1699C63.7514 83.1699 63.5287 83.1582 63.2709 83.1348C63.0209 83.1113 62.7592 83.0645 62.4857 82.9941C62.2123 82.9238 61.9428 82.8223 61.6771 82.6895C61.4115 82.5566 61.1732 82.3809 60.9623 82.1621C60.7592 81.9434 60.5912 81.6738 60.4584 81.3535C60.3334 81.0332 60.2709 80.6465 60.2709 80.1934C60.2709 79.8262 60.3217 79.416 60.4232 78.9629C60.3217 78.9473 60.224 78.8965 60.1303 78.8105C60.0443 78.7168 60.0014 78.584 60.0014 78.4121ZM67.3373 75.166C67.3529 75.127 67.3607 75.0918 67.3607 75.0605C67.3607 75.0293 67.3607 74.9941 67.3607 74.9551C67.3607 74.7441 67.2826 74.5879 67.1264 74.4863C66.9701 74.377 66.7826 74.3223 66.5639 74.3223C66.2201 74.3223 65.8803 74.4121 65.5443 74.5918C65.2162 74.7715 64.9037 74.998 64.6068 75.2715C64.3178 75.5371 64.06 75.8262 63.8334 76.1387C63.6068 76.4434 63.4311 76.7207 63.3061 76.9707C63.8686 76.9238 64.3842 76.8496 64.8529 76.748C65.3217 76.6387 65.7279 76.5059 66.0717 76.3496C66.4232 76.1855 66.7045 76.0059 66.9154 75.8105C67.1342 75.6074 67.2748 75.3926 67.3373 75.166ZM77.2401 82.4316C77.2401 82.2051 77.2675 81.9355 77.3222 81.623C77.3768 81.3027 77.4042 80.9082 77.4042 80.4395C77.1464 80.627 76.8612 80.8496 76.5487 81.1074C76.2362 81.3652 75.912 81.6113 75.5761 81.8457C75.2401 82.0801 74.9042 82.2793 74.5682 82.4434C74.2401 82.5996 73.9315 82.6777 73.6425 82.6777C73.4081 82.6777 73.1854 82.6426 72.9745 82.5723C72.7636 82.502 72.5839 82.4082 72.4354 82.291C72.0214 81.9629 71.7206 81.6348 71.5331 81.3066C71.3534 80.9785 71.2636 80.5957 71.2636 80.1582C71.2636 79.9629 71.2792 79.7598 71.3104 79.5488C71.3495 79.3379 71.4042 79.0957 71.4745 78.8223C71.7714 77.5879 72.2792 76.4473 72.9979 75.4004C73.7245 74.3457 74.6229 73.4473 75.6932 72.7051C76.1073 72.416 76.5214 72.2324 76.9354 72.1543C77.3495 72.0684 77.7597 72.0254 78.1659 72.0254C78.3456 72.0254 78.5448 72.0371 78.7636 72.0605C78.9901 72.084 79.1932 72.1074 79.3729 72.1309C79.5526 72.0918 79.6972 72.0645 79.8065 72.0488C79.9237 72.0332 80.0448 72.0254 80.1698 72.0254C80.4042 72.0254 80.5995 72.0566 80.7557 72.1191C80.912 72.1816 81.037 72.2676 81.1307 72.377C81.2245 72.4785 81.2909 72.5996 81.33 72.7402C81.3768 72.873 81.4003 73.0137 81.4003 73.1621C81.4003 73.3652 81.369 73.5605 81.3065 73.748C81.244 73.9277 81.1815 74.1113 81.119 74.2988L79.5722 80.4746C79.5409 80.8105 79.5136 81.1191 79.4901 81.4004C79.4667 81.6816 79.4198 81.9434 79.3495 82.1855C79.3261 82.2559 79.2948 82.3457 79.2557 82.4551C79.2245 82.5566 79.1698 82.6582 79.0917 82.7598C79.0136 82.8535 78.9159 82.9355 78.7987 83.0059C78.6815 83.0762 78.5292 83.1113 78.3417 83.1113C78.0995 83.1113 77.9042 83.0957 77.7557 83.0645C77.6151 83.0332 77.5057 82.9902 77.4276 82.9355C77.3495 82.873 77.2987 82.8027 77.2753 82.7246C77.2518 82.6387 77.2401 82.541 77.2401 82.4316ZM73.3495 78.8926C73.3182 79.002 73.2831 79.1582 73.244 79.3613C73.2128 79.5645 73.1972 79.7676 73.1972 79.9707C73.1972 80.1816 73.2284 80.373 73.2909 80.5449C73.3534 80.709 73.4901 80.791 73.7011 80.791C74.0292 80.791 74.3339 80.7207 74.6151 80.5801C74.9042 80.4316 75.1737 80.2559 75.4237 80.0527C75.7597 79.7793 76.0995 79.4746 76.4432 79.1387C76.7948 78.7949 77.1229 78.4355 77.4276 78.0605C77.7401 77.6855 78.0136 77.3027 78.2479 76.9121C78.4901 76.5137 78.6659 76.1191 78.7753 75.7285C78.8378 75.502 78.8886 75.2402 78.9276 74.9434C78.9745 74.6465 78.9979 74.3809 78.9979 74.1465C78.9979 74.0449 78.9745 73.9473 78.9276 73.8535C78.8807 73.752 78.7909 73.7012 78.6581 73.7012C78.2753 73.7012 77.8886 73.7754 77.4979 73.9238C77.1151 74.0723 76.744 74.2715 76.3847 74.5215C76.0253 74.7715 75.6815 75.0684 75.3534 75.4121C75.0331 75.748 74.7401 76.1113 74.4745 76.502C74.2089 76.8848 73.9784 77.2832 73.7831 77.6973C73.5956 78.1035 73.4511 78.502 73.3495 78.8926ZM82.725 82.1621C82.9593 81.248 83.1859 80.3965 83.4046 79.6074C83.6234 78.8184 83.8343 78.0645 84.0375 77.3457C84.2484 76.6191 84.4515 75.916 84.6468 75.2363C84.8421 74.5566 85.0296 73.8652 85.2093 73.1621C85.2796 72.8887 85.3187 72.627 85.3265 72.377C85.3421 72.1191 85.3812 71.8535 85.4437 71.5801C85.475 71.4863 85.5296 71.4043 85.6078 71.334C85.6937 71.2559 85.7875 71.1895 85.889 71.1348C85.9906 71.0801 86.0961 71.0371 86.2054 71.0059C86.3226 70.9746 86.432 70.959 86.5336 70.959C86.7523 70.959 86.932 70.9863 87.0726 71.041C87.2211 71.0879 87.3382 71.1543 87.4242 71.2402C87.5179 71.3262 87.5804 71.4316 87.6117 71.5566C87.6507 71.6738 87.6703 71.8066 87.6703 71.9551C87.6703 72.2207 87.6273 72.4902 87.5414 72.7637C87.4554 73.0293 87.35 73.3223 87.225 73.6426C87.5921 73.3535 87.9671 73.0801 88.35 72.8223C88.7406 72.5645 89.139 72.3379 89.5453 72.1426C89.9593 71.9473 90.3812 71.791 90.8109 71.6738C91.2406 71.5566 91.6859 71.498 92.1468 71.498C92.3578 71.498 92.5687 71.5332 92.7796 71.6035C92.9906 71.666 93.1781 71.7676 93.3421 71.9082C93.514 72.0488 93.6546 72.2324 93.764 72.459C93.8812 72.6855 93.9476 72.9629 93.9632 73.291C94.2992 73.0645 94.6468 72.8379 95.0062 72.6113C95.3656 72.377 95.7289 72.1699 96.0961 71.9902C96.4711 71.8027 96.8421 71.6543 97.2093 71.5449C97.5843 71.4277 97.9476 71.3691 98.2992 71.3691C98.8226 71.3691 99.2523 71.4395 99.5882 71.5801C99.932 71.7129 100.202 71.8965 100.397 72.1309C100.6 72.3574 100.741 72.623 100.819 72.9277C100.905 73.2324 100.948 73.5566 100.948 73.9004C100.948 74.2754 100.912 74.6621 100.842 75.0605C100.772 75.459 100.694 75.8379 100.608 76.1973C100.381 77.1035 100.127 77.9629 99.8461 78.7754C99.5648 79.5801 99.2601 80.3965 98.932 81.2246C98.8539 81.4199 98.7718 81.627 98.6859 81.8457C98.6 82.0645 98.4984 82.2676 98.3812 82.4551C98.2718 82.6348 98.139 82.7871 97.9828 82.9121C97.8343 83.0293 97.6586 83.0879 97.4554 83.0879C96.9945 83.0879 96.6781 83.0098 96.5062 82.8535C96.3343 82.6973 96.2484 82.4746 96.2484 82.1855C96.2484 82.1074 96.2523 82.0176 96.2601 81.916C96.2679 81.8145 96.2875 81.7168 96.3187 81.623C96.35 81.5059 96.4203 81.3379 96.5296 81.1191C96.639 80.8926 96.7562 80.6504 96.8812 80.3926C97.014 80.1348 97.1429 79.877 97.2679 79.6191C97.3929 79.3535 97.4867 79.123 97.5492 78.9277C97.6507 78.5918 97.7679 78.2051 97.9007 77.7676C98.0414 77.3223 98.1742 76.877 98.2992 76.4316C98.4242 75.9785 98.5257 75.5527 98.6039 75.1543C98.6898 74.748 98.7328 74.4199 98.7328 74.1699C98.7328 74.0527 98.7211 73.9355 98.6976 73.8184C98.6742 73.7012 98.6312 73.5996 98.5687 73.5137C98.514 73.4277 98.432 73.3574 98.3226 73.3027C98.2211 73.248 98.0882 73.2207 97.9242 73.2207C97.6898 73.2207 97.4086 73.2871 97.0804 73.4199C96.7601 73.5527 96.4242 73.7285 96.0726 73.9473C95.7289 74.1582 95.3929 74.4004 95.0648 74.6738C94.7367 74.9395 94.4554 75.2051 94.2211 75.4707C94.057 75.6582 93.9007 75.8105 93.7523 75.9277C93.6039 76.0449 93.4554 76.1348 93.307 76.1973C93.2914 76.2285 93.2523 76.334 93.1898 76.5137C93.1273 76.6855 93.0531 76.8965 92.9671 77.1465C92.8812 77.3887 92.7914 77.6543 92.6976 77.9434C92.6039 78.2246 92.514 78.4902 92.4281 78.7402C92.35 78.9824 92.2836 79.1895 92.2289 79.3613C92.1742 79.5254 92.1468 79.6152 92.1468 79.6309C92.0921 79.8496 92.0453 80.0762 92.0062 80.3105C91.9671 80.5371 91.932 80.7559 91.9007 80.9668C91.8695 81.1777 91.8382 81.4043 91.807 81.6465C91.7836 81.8809 91.7289 82.1035 91.6429 82.3145C91.5648 82.5176 91.4398 82.6855 91.2679 82.8184C91.1039 82.9512 90.8695 83.0176 90.5648 83.0176C90.4086 83.0176 90.264 82.9785 90.1312 82.9004C90.0062 82.8223 89.8968 82.7246 89.8031 82.6074C89.7093 82.4824 89.6351 82.3457 89.5804 82.1973C89.5257 82.041 89.4945 81.8848 89.4867 81.7285C89.6664 81.0254 89.8421 80.3926 90.014 79.8301C90.1859 79.2676 90.3578 78.7285 90.5296 78.2129C90.7015 77.6973 90.8656 77.1816 91.0218 76.666C91.1859 76.1426 91.3461 75.5684 91.5023 74.9434C91.5414 74.7949 91.5726 74.6504 91.5961 74.5098C91.6195 74.3613 91.6312 74.2324 91.6312 74.123C91.6312 73.9355 91.5921 73.7832 91.514 73.666C91.4359 73.541 91.2992 73.4785 91.1039 73.4785C90.7836 73.4785 90.4632 73.5449 90.1429 73.6777C89.8304 73.8027 89.4906 74.002 89.1234 74.2754C88.7562 74.5488 88.3461 74.8965 87.8929 75.3184C87.4476 75.7402 86.932 76.2441 86.3461 76.8301C86.2836 76.9473 86.2015 77.166 86.1 77.4863C85.9984 77.8066 85.8929 78.1465 85.7836 78.5059C85.682 78.8652 85.5882 79.2012 85.5023 79.5137C85.4164 79.8184 85.3617 80.0215 85.3382 80.123C85.2523 80.4512 85.1937 80.7285 85.1625 80.9551C85.1312 81.1738 85.1039 81.373 85.0804 81.5527C85.0648 81.6465 85.0414 81.8027 85.0101 82.0215C84.9789 82.2324 84.9203 82.4473 84.8343 82.666C84.7562 82.8848 84.6429 83.0762 84.4945 83.2402C84.3461 83.4121 84.1507 83.498 83.9086 83.498C83.5492 83.498 83.2523 83.4004 83.0179 83.2051C82.7914 83.0098 82.6781 82.7637 82.6781 82.4668C82.6781 82.4121 82.682 82.3613 82.6898 82.3145C82.6976 82.2676 82.7093 82.2168 82.725 82.1621ZM110.018 66.4707C110.018 66.7988 109.858 67.2949 109.538 67.959C109.296 68.4668 108.815 69.6777 108.097 71.5918C107.386 73.498 106.952 74.6777 106.796 75.1309C106.639 75.584 106.499 76.1387 106.374 76.7949C106.272 77.3027 105.921 77.5566 105.319 77.5566C104.546 77.5566 104.159 77.1738 104.159 76.4082C104.159 75.6035 104.636 74.0605 105.589 71.7793C106.55 69.4902 107.288 67.9238 107.804 67.0801C108.319 66.2285 108.815 65.8027 109.292 65.8027C109.776 65.8027 110.018 66.0254 110.018 66.4707ZM106.128 81.0371C106.128 81.5762 105.921 82.0449 105.507 82.4434C105.093 82.834 104.62 83.0293 104.089 83.0293C103.682 83.0293 103.335 82.8887 103.046 82.6074C102.764 82.3184 102.624 81.9707 102.624 81.5645C102.624 81.0254 102.839 80.5527 103.268 80.1465C103.706 79.7324 104.186 79.5254 104.71 79.5254C105.116 79.5254 105.452 79.6699 105.718 79.959C105.991 80.248 106.128 80.6074 106.128 81.0371Z" fill="#161616"/>
<defs>
<clipPath id="clip0_93_967">
<rect width="114" height="114" fill="white" transform="matrix(-0.777989 0.628278 0.628278 0.777989 201.69 0)"/>
</clipPath>
</defs>
</svg>
